<svg width="26" height="32" viewBox="0 0 26 32" fill="none" xmlns="http://www.w3.org/2000/svg">
<path d="M8.3052 32C6.34251 32 4.85636 30.083 3.38701 27.9482C1.83035 25.6187 0.77556 22.9921 0.289468 20.2347C-0.328185 17.3919 0.0491599 14.4237 1.35864 11.8248C2.03534 10.6404 2.99967 9.64481 4.16293 8.92952C5.30374 8.22793 6.61246 7.84482 7.95238 7.82019H8.03333C9.14498 7.89111 10.2332 8.1708 11.2408 8.64457C11.8616 8.94581 12.5296 9.13857 13.2158 9.21448C13.8785 9.1322 14.5233 8.9428 15.125 8.65371C16.2853 8.11747 17.5358 7.80222 18.8121 7.72419C18.9815 7.7243 19.1507 7.73295 19.3192 7.7501C20.4716 7.78747 21.5991 8.09363 22.6116 8.64403C23.624 9.19443 24.4931 9.97378 25.1492 10.9196L25.1233 10.9349C24.0861 11.5753 23.2292 12.4684 22.6331 13.5301C22.0371 14.5918 21.7213 15.7873 21.7157 17.0042C21.7174 18.3811 22.1233 19.7273 22.8834 20.8766C23.6434 22.0259 24.7242 22.9279 25.9924 23.4712H26L25.9893 23.5032C25.4766 25.1067 24.7364 26.6287 23.7914 28.0229C22.5481 29.8514 21.1399 31.9116 18.9114 31.9528H18.8136C17.9878 31.9346 17.1768 31.7298 16.4416 31.3539C15.5738 30.9193 14.6175 30.6894 13.6465 30.6819C12.629 30.6891 11.6264 30.9261 10.7139 31.3752C9.99821 31.7278 9.21944 31.935 8.42281 31.9848L8.3052 32ZM13.2921 7.38743C13.1837 7.38743 13.0752 7.38743 12.9683 7.37524C12.9032 6.47884 13.0197 5.57854 13.3107 4.72798C13.6017 3.87742 14.0613 3.094 14.6622 2.42438C15.857 1.04459 17.5383 0.176462 19.3574 0C19.4968 1.85461 18.9012 3.68976 17.6986 5.11086C17.1702 5.78283 16.5034 6.33381 15.7432 6.72656C14.983 7.11931 14.1471 7.34468 13.2921 7.38743Z" fill="#FF9A5F"/>
</svg>
