<svg width="141" height="160" viewBox="0 0 141 160" fill="none" xmlns="http://www.w3.org/2000/svg">
<path d="M123.029 143.506C119.133 147.666 114.668 151.259 109.767 154.177C109.654 154.246 109.54 154.31 109.425 154.377L101.49 147.373C101.574 147.296 101.666 147.21 101.765 147.114C107.678 141.516 137.029 102.37 138.985 92.838C138.85 93.6321 140.75 124.776 123.029 143.506Z" fill="#FF9A5F"/>
<path d="M111.298 155.528C111.148 155.564 110.995 155.597 110.842 155.628L104.889 150.373C105.005 150.333 105.141 150.285 105.297 150.231C107.851 149.329 115.458 146.607 123.029 143.505C131.163 140.172 139.259 136.405 141 133.992C140.626 134.553 129.122 151.553 111.298 155.528Z" fill="#FF9A5F"/>
<path d="M37.2882 30.9488V58.5458C32.8911 59.6995 28.2873 59.8318 23.8309 58.9327C19.3744 58.0336 15.1842 56.127 11.5826 53.3595C7.98102 50.5921 5.06398 47.0375 3.05598 42.9694C1.04797 38.9013 0.0025002 34.4281 0 29.8938C0 29.0845 0.0326096 28.2836 0.0978292 27.4911H16.4123C17.1945 27.4918 17.9648 27.3005 18.6554 26.9342C19.3459 26.5678 19.9355 26.0375 20.3719 25.3902C20.8084 24.7428 21.0784 23.9983 21.1581 23.2223C21.2378 22.4463 21.1247 21.6626 20.8289 20.9405H27.2488C28.567 20.94 29.8724 21.1985 31.0904 21.7013C32.3085 22.204 33.4152 22.9412 34.3475 23.8706C35.2798 24.8 36.0194 25.9035 36.5239 27.118C37.0285 28.3325 37.2882 29.6342 37.2882 30.9488Z" fill="#FF9A5F"/>
<path d="M112.102 37.8196H111.221V13.8645C111.221 12.0438 110.859 10.2409 110.156 8.55882C109.454 6.8767 108.424 5.34828 107.126 4.06084C105.828 2.7734 104.286 1.75214 102.59 1.05538C100.894 0.35862 99.0762 1.72306e-06 97.2403 0H46.0642C42.3563 -8.11952e-06 38.8004 1.46071 36.1785 4.06081C33.5567 6.6609 32.0837 10.1874 32.0837 13.8645V145.284C32.0837 148.961 33.5567 152.487 36.1785 155.088C38.8003 157.688 42.3563 159.148 46.0641 159.148H97.2402C100.948 159.148 104.504 157.688 107.126 155.088C109.748 152.487 111.221 148.961 111.221 145.284V54.8712H112.102L112.102 37.8196Z" fill="#111111"/>
<path d="M108.245 13.9619V145.188C108.245 147.934 107.145 150.568 105.187 152.509C103.229 154.451 100.573 155.542 97.8039 155.542H46.3823C43.6132 155.542 40.9575 154.451 38.9995 152.509C37.0415 150.568 35.9415 147.934 35.9414 145.188V13.9619C35.9415 11.2158 37.0415 8.58216 38.9995 6.64035C40.9576 4.69854 43.6132 3.60763 46.3823 3.60757H52.6203C52.3138 4.35457 52.1971 5.16482 52.2804 5.96705C52.3638 6.76929 52.6446 7.53892 53.0983 8.20825C53.5519 8.87758 54.1645 9.4261 54.882 9.80556C55.5996 10.185 56.4002 10.3838 57.2134 10.3844H86.5317C87.3449 10.3838 88.1455 10.185 88.8631 9.80554C89.5807 9.42608 90.1932 8.87757 90.6469 8.20824C91.1005 7.53891 91.3813 6.76928 91.4647 5.96705C91.548 5.16482 91.4313 4.35457 91.1248 3.60757H97.8039C100.573 3.60762 103.229 4.69854 105.187 6.64035C107.145 8.58216 108.245 11.2158 108.245 13.9619Z" fill="white"/>
<path d="M49.1233 15.7787C48.1967 15.7787 47.2791 15.9597 46.423 16.3114C45.5669 16.663 44.7891 17.1785 44.1339 17.8283C43.4786 18.4781 42.9589 19.2495 42.6043 20.0985C42.2497 20.9475 42.0671 21.8574 42.0671 22.7764C42.0671 23.6953 42.2496 24.6053 42.6042 25.4542C42.9588 26.3032 43.4786 27.0747 44.1338 27.7245C44.789 28.3743 45.5669 28.8897 46.423 29.2414C47.2791 29.593 48.1966 29.774 49.1233 29.774H49.1233C50.9947 29.774 52.7895 29.0368 54.1127 27.7245C55.436 26.4122 56.1794 24.6323 56.1794 22.7764C56.1794 20.9205 55.436 19.1406 54.1127 17.8283C52.7895 16.516 50.9947 15.7787 49.1233 15.7787Z" fill="#F2F2F2"/>
<path d="M100.355 28.6799H63.3104C62.8426 28.6799 62.3939 28.4956 62.0631 28.1675C61.7323 27.8394 61.5464 27.3945 61.5464 26.9305C61.5464 26.4665 61.7323 26.0215 62.0631 25.6935C62.3939 25.3654 62.8426 25.1811 63.3104 25.1811H100.355C100.823 25.1811 101.272 25.3654 101.603 25.6935C101.933 26.0215 102.119 26.4665 102.119 26.9305C102.119 27.3945 101.933 27.8394 101.603 28.1675C101.272 28.4956 100.823 28.6799 100.355 28.6799Z" fill="#F2F2F2"/>
<path d="M74.9972 21.2453H63.3104C62.8426 21.2453 62.3939 21.061 62.0631 20.7329C61.7323 20.4048 61.5464 19.9598 61.5464 19.4958C61.5464 19.0319 61.7323 18.5869 62.0631 18.2588C62.3939 17.9307 62.8426 17.7464 63.3104 17.7464H74.9972C75.465 17.7464 75.9137 17.9307 76.2445 18.2588C76.5753 18.5869 76.7612 19.0319 76.7612 19.4958C76.7612 19.9598 76.5753 20.4048 76.2445 20.7329C75.9137 21.061 75.465 21.2453 74.9972 21.2453Z" fill="#F2F2F2"/>
<path d="M49.1233 45.0807C48.1967 45.0807 47.2791 45.2617 46.423 45.6134C45.5669 45.9651 44.7891 46.4805 44.1339 47.1303C43.4786 47.7801 42.9589 48.5515 42.6043 49.4005C42.2497 50.2495 42.0671 51.1594 42.0671 52.0784C42.0671 52.9973 42.2496 53.9073 42.6042 54.7563C42.9588 55.6053 43.4786 56.3767 44.1338 57.0265C44.789 57.6763 45.5669 58.1917 46.423 58.5434C47.2791 58.8951 48.1966 59.0761 49.1233 59.0761H49.1233C50.9947 59.0761 52.7895 58.3388 54.1127 57.0265C55.436 55.7142 56.1794 53.9343 56.1794 52.0784C56.1794 50.2225 55.436 48.4426 54.1127 47.1303C52.7895 45.818 50.9947 45.0807 49.1233 45.0807Z" fill="#F2F2F2"/>
<path d="M100.355 57.9824H63.3104C62.8426 57.9824 62.3939 57.7981 62.0631 57.47C61.7323 57.1419 61.5464 56.6969 61.5464 56.233C61.5464 55.769 61.7323 55.324 62.0631 54.9959C62.3939 54.6679 62.8426 54.4836 63.3104 54.4836H100.355C100.823 54.4836 101.272 54.6679 101.603 54.9959C101.933 55.324 102.119 55.769 102.119 56.233C102.119 56.6969 101.933 57.1419 101.603 57.47C101.272 57.7981 100.823 57.9824 100.355 57.9824Z" fill="#F2F2F2"/>
<path d="M74.9972 50.5477H63.3104C62.8426 50.5477 62.3939 50.3634 62.0631 50.0353C61.7323 49.7073 61.5464 49.2623 61.5464 48.7983C61.5464 48.3343 61.7323 47.8894 62.0631 47.5613C62.3939 47.2332 62.8426 47.0489 63.3104 47.0489H74.9972C75.465 47.0489 75.9137 47.2332 76.2445 47.5613C76.5753 47.8894 76.7612 48.3343 76.7612 48.7983C76.7612 49.2623 76.5753 49.7073 76.2445 50.0353C75.9137 50.3634 75.465 50.5477 74.9972 50.5477Z" fill="#F2F2F2"/>
<path d="M49.1233 103.686C47.2519 103.686 45.4571 104.423 44.1339 105.735C42.8106 107.048 42.0671 108.827 42.0671 110.683C42.0671 112.539 42.8105 114.319 44.1338 115.631C45.4571 116.944 47.2518 117.681 49.1233 117.681H49.1233C50.9947 117.681 52.7895 116.944 54.1127 115.631C55.436 114.319 56.1794 112.539 56.1794 110.683C56.1794 108.827 55.436 107.048 54.1127 105.735C52.7895 104.423 50.9947 103.686 49.1233 103.686Z" fill="#F2F2F2"/>
<path d="M100.355 116.588H63.3104C62.8426 116.588 62.3939 116.404 62.0631 116.075C61.7323 115.747 61.5464 115.302 61.5464 114.838C61.5464 114.374 61.7323 113.929 62.0631 113.601C62.3939 113.273 62.8426 113.089 63.3104 113.089H100.355C100.823 113.089 101.272 113.273 101.603 113.601C101.933 113.929 102.119 114.374 102.119 114.838C102.119 115.302 101.933 115.747 101.603 116.075C101.272 116.404 100.823 116.588 100.355 116.588Z" fill="#F2F2F2"/>
<path d="M74.9972 109.152H63.3104C62.8426 109.152 62.3939 108.968 62.0631 108.64C61.7323 108.312 61.5464 107.867 61.5464 107.403C61.5464 106.939 61.7323 106.494 62.0631 106.166C62.3939 105.838 62.8426 105.653 63.3104 105.653H74.9972C75.465 105.653 75.9137 105.838 76.2445 106.166C76.5753 106.494 76.7612 106.939 76.7612 107.403C76.7612 107.867 76.5753 108.312 76.2445 108.64C75.9137 108.968 75.465 109.152 74.9972 109.152Z" fill="#F2F2F2"/>
<path d="M49.1233 132.989C48.1967 132.989 47.2791 133.17 46.423 133.521C45.5669 133.873 44.7891 134.388 44.1339 135.038C43.4786 135.688 42.9589 136.459 42.6043 137.308C42.2497 138.157 42.0671 139.067 42.0671 139.986C42.0671 140.905 42.2496 141.815 42.6042 142.664C42.9588 143.513 43.4786 144.285 44.1338 144.934C44.789 145.584 45.5669 146.1 46.423 146.451C47.2791 146.803 48.1966 146.984 49.1233 146.984H49.1233C50.9947 146.984 52.7895 146.247 54.1127 144.934C55.436 143.622 56.1794 141.842 56.1794 139.986C56.1794 138.13 55.436 136.351 54.1127 135.038C52.7895 133.726 50.9947 132.989 49.1233 132.989Z" fill="#F2F2F2"/>
<path d="M100.355 145.891H63.3104C62.8426 145.891 62.3939 145.706 62.0631 145.378C61.7323 145.05 61.5464 144.605 61.5464 144.141C61.5464 143.677 61.7323 143.232 62.0631 142.904C62.3939 142.576 62.8426 142.392 63.3104 142.392H100.355C100.823 142.392 101.272 142.576 101.603 142.904C101.933 143.232 102.119 143.677 102.119 144.141C102.119 144.605 101.933 145.05 101.603 145.378C101.272 145.706 100.823 145.891 100.355 145.891Z" fill="#F2F2F2"/>
<path d="M74.9972 138.455H63.3104C62.8426 138.455 62.3939 138.271 62.0631 137.943C61.7323 137.615 61.5464 137.17 61.5464 136.706C61.5464 136.242 61.7323 135.797 62.0631 135.469C62.3939 135.141 62.8426 134.956 63.3104 134.956H74.9972C75.465 134.956 75.9137 135.141 76.2445 135.469C76.5753 135.797 76.7612 136.242 76.7612 136.706C76.7612 137.17 76.5753 137.615 76.2445 137.943C75.9137 138.271 75.465 138.455 74.9972 138.455Z" fill="#F2F2F2"/>
<path d="M114.65 98.2192H29.5358C28.5712 98.2181 27.6464 97.8376 26.9643 97.1611C26.2822 96.4847 25.8985 95.5676 25.8975 94.611V67.495C25.8986 66.5384 26.2822 65.6213 26.9643 64.9448C27.6464 64.2684 28.5712 63.8879 29.5358 63.8868H114.65C115.615 63.8879 116.54 64.2684 117.222 64.9448C117.904 65.6213 118.288 66.5384 118.289 67.495V94.611C118.288 95.5676 117.904 96.4847 117.222 97.1611C116.54 97.8376 115.615 98.2181 114.65 98.2192Z" fill="white"/>
<path d="M100.355 86.957H63.3099C62.8421 86.957 62.3934 86.7727 62.0626 86.4446C61.7318 86.1166 61.5459 85.6716 61.5459 85.2076C61.5459 84.7436 61.7318 84.2987 62.0626 83.9706C62.3934 83.6425 62.8421 83.4582 63.3099 83.4582H100.355C100.823 83.4582 101.271 83.6425 101.602 83.9706C101.933 84.2987 102.119 84.7436 102.119 85.2076C102.119 85.6716 101.933 86.1166 101.602 86.4446C101.271 86.7727 100.823 86.957 100.355 86.957Z" fill="#FF9A5F"/>
<path d="M74.9967 79.5219H63.3099C62.8421 79.5219 62.3934 79.3376 62.0626 79.0095C61.7318 78.6814 61.5459 78.2365 61.5459 77.7725C61.5459 77.3085 61.7318 76.8635 62.0626 76.5355C62.3934 76.2074 62.8421 76.0231 63.3099 76.0231H74.9967C75.4645 76.0231 75.9132 76.2074 76.244 76.5355C76.5748 76.8635 76.7607 77.3085 76.7607 77.7725C76.7607 78.2365 76.5748 78.6814 76.244 79.0095C75.9132 79.3376 75.4645 79.5219 74.9967 79.5219Z" fill="#FF9A5F"/>
<rect x="26.2116" y="63.8331" width="91.7631" height="34.2727" stroke="#2C3131" stroke-width="0.628217"/>
<path d="M133.188 39.4553L123.556 32.1089L116.189 41.7142L125.821 49.0606L133.188 39.4553Z" fill="#FF9A5F"/>
</svg>
