<svg width="14" height="18" viewBox="0 0 14 18" fill="none" xmlns="http://www.w3.org/2000/svg">
<path d="M8.00368 1.50244C8.00368 0.990765 7.58889 0.57597 7.07721 0.57597C6.56553 0.57597 6.15074 0.990765 6.15074 1.50244L8.00368 1.50244ZM6.42209 16.8808C6.7839 17.2426 7.37051 17.2426 7.73232 16.8808L13.6284 10.9848C13.9902 10.623 13.9902 10.0364 13.6284 9.67454C13.2665 9.31273 12.6799 9.31273 12.3181 9.67454L7.07721 14.9155L1.83629 9.67454C1.47448 9.31273 0.887874 9.31273 0.526064 9.67454C0.164254 10.0364 0.164254 10.623 0.526064 10.9848L6.42209 16.8808ZM6.15074 1.50244L6.15074 16.2257H8.00368L8.00368 1.50244L6.15074 1.50244Z" fill="white"/>
</svg>
