<svg width="122" height="140" viewBox="0 0 122 140" fill="none" xmlns="http://www.w3.org/2000/svg">
<path d="M114.965 46.9686H6.6145V139.684H114.965V46.9686Z" fill="white"/>
<path d="M115.28 140H6.29956V46.6522H115.28V140ZM6.9295 139.367H114.65V47.2851H6.9295V139.367Z" fill="#2C3131"/>
<path d="M74.3331 65.0049H47.2456V139.683H74.3331V65.0049Z" fill="#699CFF"/>
<path d="M74.3331 65.0049H47.2456V139.683H74.3331V65.0049Z" fill="#FF9A5F"/>
<path d="M121.264 38.425H0.315186V65.0054H121.264V38.425Z" fill="white"/>
<path d="M121.579 65.3223H0V38.109H121.579V65.3223ZM0.629942 64.6894H120.949V38.7419H0.629942V64.6894Z" fill="#2C3131"/>
<path d="M74.3331 35.8935H47.2456V64.6889H74.3331V35.8935Z" fill="#FF9A5F"/>
<path d="M57.8894 10.7865C65.0397 21.435 58.3028 38.5616 58.3028 38.5616C58.3028 38.5616 39.973 38.4235 32.8227 27.775C25.6724 17.1266 32.4093 0 32.4093 0C32.4093 0 50.7391 0.138063 57.8894 10.7865Z" fill="#FF9A5F"/>
<path d="M61.1698 10.7865C54.0195 21.435 60.7565 38.5616 60.7565 38.5616C60.7565 38.5616 79.0863 38.4235 86.2366 27.775C93.3869 17.1266 86.65 0 86.65 0C86.65 0 68.3201 0.138063 61.1698 10.7865Z" fill="#FF9A5F"/>
<ellipse rx="21.871" ry="22.016" transform="matrix(1.00041 0 -0.0011555 0.999591 61.1057 95.2678)" fill="#FF9A5F"/>
<path d="M59.0621 106.851C55.6534 106.546 52.2618 104.03 52.2633 102.713C52.2647 101.426 53.3049 100.816 54.3271 100.036C55.3493 99.2569 60.0101 103.989 62.7994 103.038C65.5888 102.086 63.9127 99.56 61.4052 97.9173C58.4508 95.9818 56.3188 94.5418 54.3366 91.4577C53.2674 89.9367 51.5603 85.6619 55.1023 83.7636C56.21 83.17 56.6308 82.7944 59.8935 82.8947L59.9646 80.6457C60.7198 79.7782 63.8677 79.8191 64.7395 80.7925L64.6684 83.0416C66.6705 83.5285 71.4404 84.8873 71.9087 86.347C72.4673 86.9485 72.8854 88.6958 71.9048 89.8946C70.2777 91.8836 59.0941 85.2305 59.9754 89.8946C60.6978 93.7172 73.9688 97.6636 70.2043 103.504C69.409 105.472 66.0277 107.16 63.9106 107L63.8411 109.195C62.7851 110.446 59.7106 110.258 59.0595 109.263L59.0621 106.851Z" fill="white"/>
</svg>
