<svg width="56" height="53" viewBox="0 0 56 53" fill="none" xmlns="http://www.w3.org/2000/svg">
<path d="M28.0094 16.3086C22.0489 16.3086 17.2411 20.8588 17.2411 26.5C17.2411 32.1412 22.0489 36.6914 28.0094 36.6914C33.9699 36.6914 38.7776 32.1412 38.7776 26.5C38.7776 20.8588 33.9699 16.3086 28.0094 16.3086ZM28.0094 33.1257C24.1575 33.1257 21.0086 30.1544 21.0086 26.5C21.0086 22.8456 24.1482 19.8743 28.0094 19.8743C31.8706 19.8743 35.0102 22.8456 35.0102 26.5C35.0102 30.1544 31.8612 33.1257 28.0094 33.1257V33.1257ZM41.7298 15.8917C41.7298 17.2133 40.6052 18.2688 39.2181 18.2688C37.8217 18.2688 36.7065 17.2045 36.7065 15.8917C36.7065 14.579 37.8311 13.5146 39.2181 13.5146C40.6052 13.5146 41.7298 14.579 41.7298 15.8917ZM48.8618 18.3043C48.7024 15.12 47.934 12.2995 45.4692 9.97557C43.0137 7.65168 40.0335 6.92436 36.669 6.7647C33.2014 6.57843 22.808 6.57843 19.3404 6.7647C15.9853 6.91549 13.005 7.64281 10.5402 9.9667C8.07542 12.2906 7.3163 15.1112 7.14761 18.2954C6.9508 21.5773 6.9508 31.4139 7.14761 34.6957C7.30693 37.88 8.07542 40.7005 10.5402 43.0244C13.005 45.3483 15.9759 46.0756 19.3404 46.2353C22.808 46.4216 33.2014 46.4216 36.669 46.2353C40.0335 46.0845 43.0137 45.3572 45.4692 43.0244C47.9246 40.7005 48.6931 37.88 48.8618 34.6957C49.0586 31.4139 49.0586 21.5861 48.8618 18.3043V18.3043ZM44.382 38.217C43.651 39.9555 42.2359 41.2948 40.3896 41.9955C37.6249 43.0333 31.0646 42.7938 28.0094 42.7938C24.9541 42.7938 18.3845 43.0244 15.6291 41.9955C13.7923 41.3037 12.3771 39.9644 11.6367 38.217C10.5402 35.6004 10.7933 29.3916 10.7933 26.5C10.7933 23.6084 10.5496 17.3907 11.6367 14.783C12.3677 13.0445 13.7829 11.7052 15.6291 11.0045C18.3938 9.9667 24.9541 10.2062 28.0094 10.2062C31.0646 10.2062 37.6343 9.97557 40.3896 11.0045C42.2265 11.6963 43.6416 13.0356 44.382 14.783C45.4785 17.3996 45.2255 23.6084 45.2255 26.5C45.2255 29.3916 45.4785 35.6093 44.382 38.217Z" fill="#FAFAFF"/>
</svg>
