<svg width="14" height="20" viewBox="0 0 14 20" fill="none" xmlns="http://www.w3.org/2000/svg">
<path d="M4 18C3.44772 18 3 18.4477 3 19C3 19.5523 3.44772 20 4 20V18ZM10 20C10.5523 20 11 19.5523 11 19C11 18.4477 10.5523 18 10 18V20ZM11.73 10.692L12.5178 11.3078L11.73 10.692ZM2.27004 10.692L1.48217 11.3078H1.48217L2.27004 10.692ZM4 14.5045H5H4ZM4 20H10V18H4V20ZM2 7C2 4.23858 4.23858 2 7 2V0C3.13401 0 0 3.13401 0 7H2ZM7 2C9.76142 2 12 4.23858 12 7H14C14 3.13401 10.866 0 7 0V2ZM12 7C12 8.16132 11.6053 9.22766 10.9421 10.0761L12.5178 11.3078C13.4462 10.1201 14 8.62335 14 7H12ZM3.05791 10.0761C2.39469 9.22766 2 8.16132 2 7H0C0 8.62335 0.553817 10.1201 1.48217 11.3078L3.05791 10.0761ZM9 15.0002H5V17.0002H9V15.0002ZM5 15.0002V15.0002H3C3 16.1048 3.89543 17.0002 5 17.0002V15.0002ZM9 15.0002V17.0002C10.1046 17.0002 11 16.1048 11 15.0002H9ZM5 15.0002V14.5045H3V15.0002H5ZM9 14.5045V15.0002H11V14.5045H9ZM1.48217 11.3078C2.3686 12.4418 3 13.4556 3 14.5045H5C5 12.6976 3.93016 11.192 3.05791 10.0761L1.48217 11.3078ZM10.9421 10.0761C10.0698 11.192 9 12.6976 9 14.5045H11C11 13.4556 11.6314 12.4418 12.5178 11.3078L10.9421 10.0761Z" fill="#333333"/>
</svg>
