<svg width="77" height="42" viewBox="0 0 77 42" fill="none" xmlns="http://www.w3.org/2000/svg">
<path d="M49.9515 15.5102C51.3165 15.5102 52.45 14.3766 52.45 13.0348C52.45 11.6699 51.2933 10.5595 49.9515 10.5595C48.6791 10.5595 47.4762 11.6005 47.4762 13.0348C47.4762 14.4229 48.5866 15.5102 49.9515 15.5102ZM47.5687 28.6968H52.3112V16.7826H47.5687V28.6968ZM61.3792 21.1319C59.1351 20.7154 58.5568 20.7617 58.5568 20.1139C58.5568 19.7901 58.765 19.5819 59.2971 19.5819C60.9859 19.5819 62.7672 20.1833 64.0165 20.8774H64.3172V17.3841C63.068 16.7826 61.1941 16.4356 59.3202 16.4356C56.6598 16.4356 53.9762 17.5923 53.9762 20.4378C53.9762 22.6124 55.156 23.6998 59.6441 24.4632C60.315 24.5789 60.7083 24.6251 60.7083 25.1341C60.7083 25.5274 60.315 25.643 59.6904 25.643C58.1635 25.643 56.1277 25.0878 54.6239 24.3475H54.3232L54.3001 27.9333C54.4157 28.0027 56.4978 29.0438 59.5284 29.0438C62.8598 29.0438 65.2889 27.7251 65.2889 24.9953C65.2889 22.543 63.8777 21.5945 61.3792 21.1319ZM75.7309 24.4401H75.4533C75.222 24.5557 74.6668 24.8333 73.9033 24.8333C73.0705 24.8333 72.2608 24.5095 72.2608 23.2139V20.646H75.4302V16.7826H72.2377V14.3766H68.7444L68.1197 16.7826H65.9914V20.646H67.6339V23.1445C67.6339 27.7251 70.0399 29.0438 72.978 29.0438C73.7414 29.0438 75.1295 28.8356 75.7541 28.5348L75.7309 24.4401Z" fill="#FF9A5F"/>
<path d="M15.3311 21.1503C15.3308 19.8566 15.5428 18.5755 15.9549 17.3802C16.3671 16.1849 16.9714 15.0988 17.7332 14.184C18.495 13.2692 19.3995 12.5436 20.395 12.0487C21.3904 11.5538 22.4573 11.2992 23.5347 11.2996H34.8147C36.9905 11.2996 39.0771 12.3374 40.6156 14.1848C42.1541 16.0321 43.0184 18.5377 43.0184 21.1503C43.0184 23.7628 42.1541 26.2684 40.6156 28.1158C39.0771 29.9631 36.9905 31.001 34.8147 31.001L23.5347 31.001C22.4573 31.0013 21.3904 30.7468 20.395 30.2519C19.3995 29.7569 18.495 29.0313 17.7332 28.1166C16.9714 27.2018 16.3671 26.1157 15.9549 24.9204C15.5428 23.7251 15.3308 22.444 15.3311 21.1503V21.1503Z" stroke="#FF9A5F" stroke-width="4" stroke-linecap="round" stroke-linejoin="round"/>
<path d="M23.8423 31.8596V39.9897C15.1874 39.9897 8.15283 31.5428 8.15283 21.1503C8.15283 10.7578 15.1874 2.31072 23.8423 2.31072H27.3288" stroke="#FF9A5F" stroke-width="4" stroke-linecap="round" stroke-linejoin="round"/>
<path d="M33.9331 24.5732C34.6099 22.3635 34.6099 19.9367 33.9331 17.727" stroke="#FF9A5F" stroke-width="4" stroke-linecap="round" stroke-linejoin="round"/>
<path d="M29.5845 23.1201C29.8716 21.821 29.8716 20.4543 29.5845 19.1552" stroke="#FF9A5F" stroke-width="4" stroke-linecap="round" stroke-linejoin="round"/>
<path d="M8.15276 21.1501H2" stroke="#FF9A5F" stroke-width="4" stroke-linecap="round" stroke-linejoin="round"/>
</svg>
