<svg id="svg" version="1.1" xmlns="http://www.w3.org/2000/svg" xmlns:xlink="http://www.w3.org/1999/xlink" width="400" height="78" viewBox="0, 0, 400,78"><g id="svgg"><path id="path0" d="M34.325 0.594 C 34.190 0.756,33.771 0.836,33.021 0.841 C 32.414 0.845,31.617 0.956,31.250 1.088 C 30.883 1.220,30.273 1.329,29.894 1.331 C 29.515 1.332,28.990 1.445,28.727 1.582 C 28.465 1.719,27.978 1.832,27.645 1.832 C 27.312 1.833,26.948 1.946,26.833 2.083 C 26.719 2.221,26.448 2.333,26.230 2.333 C 26.012 2.333,25.833 2.400,25.833 2.481 C 25.833 2.562,25.496 2.679,25.083 2.741 C 24.671 2.803,24.333 2.920,24.333 3.000 C 24.333 3.080,23.996 3.197,23.583 3.259 C 23.171 3.321,22.833 3.424,22.833 3.488 C 22.833 3.613,21.271 4.333,20.998 4.333 C 20.908 4.333,20.833 4.400,20.833 4.482 C 20.833 4.564,20.628 4.682,20.377 4.745 C 20.126 4.808,19.882 4.918,19.835 4.988 C 19.747 5.121,18.569 5.837,17.833 6.205 C 17.604 6.320,17.229 6.584,17.000 6.792 C 16.771 7.000,16.439 7.216,16.262 7.272 C 16.086 7.329,15.749 7.553,15.514 7.771 C 15.279 7.988,15.030 8.167,14.960 8.167 C 14.890 8.167,14.833 8.273,14.833 8.403 C 14.833 8.534,14.608 8.690,14.333 8.750 C 14.058 8.810,13.833 8.966,13.833 9.097 C 13.833 9.227,13.748 9.333,13.644 9.333 C 13.540 9.333,13.281 9.521,13.069 9.750 C 12.856 9.979,12.642 10.167,12.591 10.167 C 12.433 10.167,11.833 10.826,11.833 11.000 C 11.833 11.092,11.721 11.167,11.583 11.167 C 11.446 11.167,11.333 11.271,11.333 11.399 C 11.333 11.526,11.147 11.677,10.919 11.734 C 10.664 11.799,10.465 11.997,10.401 12.253 C 10.344 12.480,10.193 12.667,10.065 12.667 C 9.938 12.667,9.833 12.779,9.833 12.917 C 9.833 13.054,9.721 13.167,9.583 13.167 C 9.446 13.167,9.333 13.244,9.333 13.339 C 9.333 13.434,9.108 13.731,8.833 14.000 C 8.558 14.269,8.333 14.558,8.333 14.643 C 8.333 14.728,8.221 14.841,8.083 14.894 C 7.946 14.946,7.833 15.142,7.833 15.328 C 7.833 15.518,7.724 15.667,7.583 15.667 C 7.446 15.667,7.333 15.771,7.333 15.899 C 7.333 16.027,7.221 16.174,7.083 16.227 C 6.946 16.280,6.833 16.438,6.833 16.578 C 6.833 16.718,6.721 16.833,6.583 16.833 C 6.428 16.833,6.333 16.991,6.333 17.250 C 6.333 17.509,6.239 17.667,6.083 17.667 C 5.917 17.667,5.833 17.833,5.833 18.167 C 5.833 18.500,5.750 18.667,5.583 18.667 C 5.446 18.667,5.333 18.771,5.333 18.899 C 5.333 19.027,5.221 19.174,5.083 19.227 C 4.946 19.280,4.833 19.513,4.833 19.745 C 4.833 20.009,4.740 20.167,4.583 20.167 C 4.417 20.167,4.333 20.333,4.333 20.667 C 4.333 21.000,4.250 21.167,4.083 21.167 C 3.946 21.167,3.833 21.309,3.833 21.482 C 3.833 21.656,3.721 21.841,3.583 21.894 C 3.426 21.954,3.333 22.209,3.333 22.578 C 3.333 22.990,3.258 23.167,3.083 23.167 C 2.910 23.167,2.833 23.341,2.833 23.732 C 2.833 24.081,2.738 24.334,2.583 24.394 C 2.446 24.446,2.333 24.671,2.333 24.894 C 2.333 25.116,2.221 25.341,2.083 25.394 C 1.907 25.461,1.833 25.736,1.833 26.328 C 1.833 26.962,1.772 27.167,1.583 27.167 C 1.389 27.167,1.333 27.389,1.333 28.167 C 1.333 28.944,1.278 29.167,1.083 29.167 C 0.910 29.167,0.833 29.341,0.833 29.732 C 0.833 30.081,0.738 30.334,0.583 30.394 C 0.385 30.470,0.333 30.820,0.333 32.078 C 0.333 33.026,0.266 33.667,0.167 33.667 C 0.059 33.667,0.000 35.694,0.000 39.417 C 0.000 43.139,0.059 45.167,0.167 45.167 C 0.265 45.167,0.333 45.780,0.333 46.672 C 0.333 47.856,0.387 48.198,0.583 48.273 C 0.746 48.336,0.833 48.595,0.833 49.018 C 0.833 49.483,0.904 49.667,1.083 49.667 C 1.278 49.667,1.333 49.889,1.333 50.667 C 1.333 51.444,1.389 51.667,1.583 51.667 C 1.769 51.667,1.833 51.861,1.833 52.417 C 1.833 52.972,1.898 53.167,2.083 53.167 C 2.250 53.167,2.333 53.333,2.333 53.667 C 2.333 54.000,2.417 54.167,2.583 54.167 C 2.764 54.167,2.833 54.352,2.833 54.839 C 2.833 55.282,2.918 55.543,3.083 55.606 C 3.227 55.661,3.333 55.910,3.333 56.190 C 3.333 56.469,3.440 56.718,3.583 56.773 C 3.721 56.826,3.833 57.003,3.833 57.167 C 3.833 57.330,3.946 57.508,4.083 57.560 C 4.221 57.613,4.333 57.848,4.333 58.083 C 4.333 58.318,4.446 58.554,4.583 58.606 C 4.721 58.659,4.833 58.882,4.833 59.101 C 4.833 59.345,4.931 59.500,5.083 59.500 C 5.222 59.500,5.333 59.648,5.333 59.833 C 5.333 60.019,5.444 60.167,5.583 60.167 C 5.740 60.167,5.833 60.325,5.833 60.589 C 5.833 60.821,5.946 61.054,6.083 61.106 C 6.221 61.159,6.333 61.299,6.333 61.417 C 6.333 61.535,6.446 61.674,6.583 61.727 C 6.721 61.780,6.833 61.975,6.833 62.161 C 6.833 62.351,6.943 62.500,7.083 62.500 C 7.222 62.500,7.333 62.648,7.333 62.833 C 7.333 63.019,7.444 63.167,7.583 63.167 C 7.721 63.167,7.833 63.279,7.833 63.417 C 7.833 63.554,7.910 63.667,8.004 63.667 C 8.098 63.667,8.246 63.854,8.333 64.083 C 8.420 64.313,8.569 64.500,8.663 64.500 C 8.756 64.500,8.833 64.612,8.833 64.750 C 8.833 64.887,8.946 65.000,9.083 65.000 C 9.221 65.000,9.333 65.074,9.333 65.164 C 9.333 65.391,12.426 68.500,12.651 68.500 C 12.751 68.500,12.833 68.612,12.833 68.750 C 12.833 68.887,12.946 69.000,13.083 69.000 C 13.221 69.000,13.333 69.107,13.333 69.237 C 13.333 69.367,13.558 69.523,13.833 69.583 C 14.108 69.644,14.333 69.800,14.333 69.930 C 14.333 70.060,14.412 70.167,14.508 70.167 C 14.604 70.167,14.856 70.354,15.069 70.583 C 15.281 70.813,15.503 71.000,15.561 71.000 C 15.619 71.000,15.817 71.150,16.000 71.333 C 16.183 71.517,16.446 71.667,16.583 71.667 C 16.721 71.667,16.833 71.742,16.833 71.833 C 16.833 71.925,16.946 72.000,17.083 72.000 C 17.221 72.000,17.333 72.107,17.333 72.237 C 17.333 72.367,17.558 72.523,17.833 72.583 C 18.108 72.644,18.333 72.756,18.333 72.833 C 18.333 72.910,18.576 73.027,18.873 73.092 C 19.463 73.222,20.146 73.611,20.434 73.983 C 20.536 74.114,20.740 74.174,20.888 74.117 C 21.058 74.052,21.251 74.148,21.412 74.377 C 21.667 74.741,21.667 74.741,21.667 74.277 C 21.667 74.022,21.595 73.858,21.507 73.912 C 21.419 73.967,21.456 73.802,21.589 73.547 C 21.722 73.292,21.832 72.979,21.832 72.852 C 21.833 72.724,22.058 72.255,22.333 71.808 C 22.608 71.361,22.833 70.923,22.833 70.836 C 22.833 70.653,23.457 69.495,23.682 69.258 C 23.765 69.171,23.833 68.976,23.833 68.826 C 23.833 68.675,23.981 68.380,24.162 68.172 C 24.539 67.738,25.167 66.156,25.167 65.642 C 25.167 65.357,25.239 65.315,25.583 65.402 C 25.835 65.465,26.000 65.435,26.000 65.327 C 26.000 65.228,25.934 65.188,25.852 65.238 C 25.771 65.289,25.666 65.180,25.618 64.998 C 25.561 64.779,25.390 64.667,25.117 64.667 C 24.889 64.667,24.659 64.554,24.606 64.417 C 24.554 64.279,24.350 64.167,24.154 64.167 C 23.958 64.167,23.514 63.942,23.167 63.667 C 22.819 63.392,22.460 63.167,22.369 63.167 C 22.277 63.167,22.159 63.054,22.106 62.917 C 22.054 62.779,21.838 62.667,21.628 62.667 C 21.398 62.667,21.180 62.523,21.081 62.305 C 20.991 62.107,20.773 61.863,20.598 61.764 C 20.137 61.503,19.667 61.028,19.667 60.823 C 19.667 60.726,19.587 60.696,19.489 60.757 C 19.391 60.817,19.270 60.710,19.219 60.517 C 19.169 60.324,19.024 60.167,18.897 60.167 C 18.770 60.167,18.667 60.054,18.667 59.917 C 18.667 59.779,18.554 59.667,18.417 59.667 C 18.279 59.667,18.167 59.554,18.167 59.417 C 18.167 59.279,18.054 59.167,17.917 59.167 C 17.779 59.167,17.667 59.054,17.667 58.917 C 17.667 58.779,17.592 58.667,17.500 58.667 C 17.284 58.667,16.667 58.049,16.667 57.833 C 16.667 57.742,16.554 57.667,16.417 57.667 C 16.279 57.667,16.167 57.554,16.167 57.417 C 16.167 57.279,16.054 57.167,15.917 57.167 C 15.779 57.167,15.667 57.054,15.667 56.917 C 15.667 56.779,15.594 56.667,15.505 56.667 C 15.416 56.667,15.387 56.554,15.440 56.417 C 15.492 56.279,15.453 56.167,15.351 56.167 C 15.250 56.167,15.167 56.054,15.167 55.917 C 15.167 55.779,15.054 55.667,14.917 55.667 C 14.779 55.667,14.667 55.563,14.667 55.437 C 14.667 55.311,14.554 55.114,14.417 55.000 C 14.279 54.886,14.167 54.652,14.167 54.480 C 14.167 54.307,14.054 54.167,13.917 54.167 C 13.750 54.167,13.667 54.000,13.667 53.667 C 13.667 53.333,13.583 53.167,13.417 53.167 C 13.279 53.167,13.167 53.054,13.167 52.917 C 13.167 52.779,13.054 52.667,12.917 52.667 C 12.736 52.667,12.667 52.481,12.667 51.995 C 12.667 51.551,12.582 51.290,12.417 51.227 C 12.279 51.174,12.167 50.960,12.167 50.750 C 12.167 50.540,12.054 50.326,11.917 50.273 C 11.771 50.217,11.667 49.967,11.667 49.672 C 11.667 49.334,11.584 49.167,11.417 49.167 C 11.225 49.167,11.167 48.953,11.167 48.245 C 11.167 47.579,11.097 47.296,10.917 47.227 C 10.774 47.172,10.667 46.924,10.667 46.649 C 10.667 46.331,10.581 46.167,10.417 46.167 C 10.213 46.167,10.167 45.889,10.167 44.667 C 10.167 43.444,10.120 43.167,9.917 43.167 C 9.541 43.167,9.541 35.751,9.917 35.606 C 10.112 35.532,10.167 35.201,10.167 34.106 C 10.167 33.012,10.222 32.681,10.417 32.606 C 10.560 32.551,10.667 32.303,10.667 32.023 C 10.667 31.744,10.773 31.495,10.917 31.440 C 11.093 31.372,11.167 31.097,11.167 30.505 C 11.167 29.871,11.228 29.667,11.417 29.667 C 11.590 29.667,11.667 29.493,11.667 29.101 C 11.667 28.752,11.762 28.499,11.917 28.440 C 12.054 28.387,12.167 28.162,12.167 27.940 C 12.167 27.717,12.279 27.492,12.417 27.440 C 12.554 27.387,12.667 27.163,12.667 26.942 C 12.667 26.721,12.779 26.447,12.917 26.333 C 13.054 26.219,13.167 25.993,13.167 25.831 C 13.167 25.668,13.279 25.492,13.417 25.440 C 13.554 25.387,13.667 25.191,13.667 25.005 C 13.667 24.815,13.776 24.667,13.917 24.667 C 14.083 24.667,14.167 24.500,14.167 24.167 C 14.167 23.833,14.250 23.667,14.417 23.667 C 14.554 23.667,14.667 23.554,14.667 23.417 C 14.667 23.279,14.738 23.167,14.824 23.167 C 14.980 23.167,15.391 22.525,15.599 21.958 C 15.657 21.798,15.809 21.667,15.936 21.667 C 16.063 21.667,16.167 21.554,16.167 21.417 C 16.167 21.279,16.279 21.167,16.417 21.167 C 16.583 21.167,16.667 21.000,16.667 20.667 C 16.667 20.333,16.750 20.167,16.917 20.167 C 17.054 20.167,17.167 20.071,17.167 19.953 C 17.167 19.836,17.392 19.655,17.667 19.551 C 18.002 19.424,18.167 19.248,18.167 19.014 C 18.167 18.816,18.274 18.667,18.417 18.667 C 18.554 18.667,18.667 18.554,18.667 18.417 C 18.667 18.267,18.820 18.167,19.049 18.167 C 19.270 18.167,19.605 17.958,19.841 17.674 C 20.066 17.403,20.344 17.178,20.458 17.174 C 20.573 17.170,20.667 17.072,20.667 16.956 C 20.667 16.840,20.835 16.672,21.042 16.581 C 21.248 16.491,21.491 16.248,21.581 16.042 C 21.696 15.780,21.888 15.667,22.216 15.667 C 22.488 15.667,22.643 15.596,22.583 15.500 C 22.526 15.408,22.665 15.262,22.890 15.177 C 23.116 15.091,23.350 14.941,23.410 14.844 C 23.470 14.746,23.665 14.667,23.843 14.667 C 24.021 14.667,24.167 14.554,24.167 14.417 C 24.167 14.250,24.333 14.167,24.667 14.167 C 25.000 14.167,25.167 14.083,25.167 13.917 C 25.167 13.779,25.307 13.667,25.480 13.667 C 25.652 13.667,25.886 13.554,26.000 13.417 C 26.114 13.279,26.423 13.167,26.687 13.167 C 27.002 13.167,27.167 13.081,27.167 12.917 C 27.167 12.744,27.340 12.667,27.730 12.667 C 28.039 12.667,28.386 12.554,28.500 12.417 C 28.614 12.279,28.811 12.167,28.937 12.167 C 29.063 12.167,29.167 12.054,29.167 11.917 C 29.167 11.722,29.389 11.667,30.167 11.667 C 30.944 11.667,31.167 11.611,31.167 11.417 C 31.167 11.217,31.417 11.167,32.417 11.167 C 33.417 11.167,33.667 11.117,33.667 10.917 C 33.667 10.725,33.880 10.667,34.589 10.667 C 35.254 10.667,35.537 10.597,35.606 10.417 C 35.725 10.107,41.667 10.035,41.667 10.343 C 41.667 10.440,41.580 10.466,41.474 10.401 C 41.367 10.335,41.327 10.354,41.383 10.445 C 41.439 10.535,41.918 10.627,42.448 10.648 C 43.003 10.670,43.526 10.789,43.678 10.927 C 43.857 11.089,44.332 11.167,45.138 11.167 C 46.089 11.167,46.333 11.218,46.333 11.417 C 46.333 11.611,46.556 11.667,47.333 11.667 C 48.111 11.667,48.333 11.722,48.333 11.917 C 48.333 12.072,48.491 12.167,48.750 12.167 C 48.979 12.167,49.167 12.246,49.167 12.343 C 49.167 12.440,49.080 12.466,48.974 12.401 C 48.868 12.335,48.826 12.353,48.879 12.439 C 48.933 12.526,49.257 12.616,49.600 12.639 C 49.943 12.662,50.305 12.786,50.404 12.914 C 50.502 13.043,50.846 13.179,51.167 13.216 C 51.489 13.254,51.731 13.370,51.708 13.476 C 51.685 13.581,51.817 13.667,52.000 13.667 C 52.185 13.667,52.333 13.778,52.333 13.917 C 52.333 14.083,52.500 14.167,52.833 14.167 C 53.167 14.167,53.333 14.250,53.333 14.417 C 53.333 14.653,53.629 14.746,54.148 14.674 C 54.294 14.653,54.342 14.737,54.278 14.904 C 54.208 15.085,54.274 15.167,54.487 15.167 C 54.658 15.167,54.841 15.279,54.894 15.417 C 54.946 15.554,55.162 15.667,55.372 15.667 C 55.602 15.667,55.820 15.810,55.919 16.028 C 56.009 16.227,56.233 16.471,56.417 16.570 C 56.600 16.669,56.798 16.816,56.856 16.896 C 56.915 16.977,57.058 16.984,57.174 16.912 C 57.308 16.829,57.343 16.849,57.271 16.966 C 57.154 17.155,57.796 17.606,58.070 17.526 C 58.154 17.501,58.132 17.591,58.020 17.726 C 57.787 18.006,58.042 18.263,58.359 18.067 C 58.471 17.998,58.507 18.021,58.444 18.122 C 58.385 18.217,58.449 18.388,58.585 18.502 C 58.792 18.673,58.833 18.648,58.833 18.349 C 58.833 18.151,58.721 17.947,58.584 17.894 C 58.447 17.841,58.377 17.731,58.428 17.648 C 58.479 17.565,58.412 17.456,58.279 17.405 C 57.967 17.285,58.443 16.754,59.456 16.089 C 59.844 15.834,60.120 15.560,60.071 15.479 C 60.021 15.399,60.161 15.264,60.382 15.180 C 60.603 15.096,61.151 14.646,61.600 14.181 C 62.049 13.716,62.492 13.334,62.583 13.332 C 62.675 13.331,63.230 12.884,63.816 12.340 C 64.403 11.795,64.928 11.355,64.983 11.361 C 65.522 11.423,66.052 11.308,65.841 11.175 C 65.708 11.091,65.540 11.058,65.468 11.103 C 65.396 11.148,65.382 11.068,65.436 10.925 C 65.491 10.783,65.459 10.667,65.365 10.667 C 65.271 10.667,65.157 10.760,65.110 10.875 C 65.064 10.990,65.020 10.877,65.013 10.625 C 65.006 10.373,64.921 10.167,64.823 10.167 C 64.726 10.167,64.698 10.249,64.760 10.350 C 64.837 10.474,64.755 10.470,64.507 10.337 C 64.294 10.223,64.179 10.042,64.232 9.904 C 64.282 9.773,64.246 9.667,64.152 9.667 C 64.057 9.667,64.026 9.593,64.082 9.502 C 64.141 9.407,64.074 9.379,63.925 9.436 C 63.759 9.500,63.667 9.442,63.667 9.274 C 63.667 8.980,63.075 8.601,62.842 8.745 C 62.759 8.796,62.643 8.689,62.585 8.506 C 62.527 8.323,62.391 8.191,62.282 8.212 C 62.173 8.233,62.104 8.151,62.129 8.029 C 62.154 7.908,62.101 7.854,62.011 7.910 C 61.792 8.045,61.167 7.643,61.167 7.367 C 61.167 7.246,61.096 7.190,61.010 7.244 C 60.924 7.297,60.786 7.220,60.704 7.072 C 60.621 6.924,60.485 6.809,60.402 6.816 C 60.046 6.847,59.667 6.625,59.667 6.388 C 59.667 6.228,59.572 6.167,59.417 6.227 C 59.279 6.280,59.167 6.249,59.167 6.158 C 59.167 6.067,58.960 5.903,58.708 5.793 C 58.456 5.683,58.093 5.431,57.900 5.232 C 57.708 5.033,57.314 4.819,57.024 4.755 C 56.734 4.692,56.532 4.583,56.575 4.514 C 56.617 4.445,56.562 4.378,56.451 4.364 C 55.759 4.278,55.167 4.111,55.167 4.002 C 55.167 3.810,53.515 3.138,53.328 3.253 C 53.239 3.308,53.167 3.236,53.167 3.093 C 53.167 2.846,53.037 2.807,52.000 2.748 C 51.771 2.735,51.598 2.649,51.616 2.556 C 51.649 2.383,51.615 2.374,50.708 2.317 C 50.382 2.296,50.167 2.193,50.167 2.058 C 50.167 1.916,49.968 1.833,49.625 1.832 C 49.327 1.832,48.869 1.719,48.606 1.582 C 48.343 1.445,47.743 1.333,47.273 1.332 C 46.802 1.332,46.202 1.219,45.939 1.082 C 45.664 0.939,45.020 0.833,44.418 0.833 C 43.685 0.833,43.311 0.758,43.163 0.579 C 42.858 0.211,34.631 0.225,34.325 0.594 M22.093 74.745 C 22.544 75.086,22.948 75.089,22.667 74.750 C 22.553 74.612,22.304 74.500,22.114 74.500 C 21.775 74.500,21.775 74.504,22.093 74.745 " stroke="none" fill="#000" fill-rule="evenodd"></path><path id="path1" d="M76.849 31.625 C 76.972 31.785,77.094 31.948,77.120 31.986 C 77.145 32.024,77.167 31.893,77.167 31.694 C 77.167 31.472,77.062 31.333,76.896 31.333 C 76.665 31.333,76.658 31.375,76.849 31.625 M76.333 33.829 C 76.333 33.929,75.344 34.396,75.083 34.420 C 74.992 34.428,74.692 34.531,74.417 34.649 C 74.142 34.767,73.716 34.889,73.471 34.922 C 73.227 34.954,72.889 35.051,72.721 35.137 C 72.327 35.338,71.282 35.667,71.034 35.667 C 70.929 35.667,70.303 35.929,69.644 36.250 C 68.984 36.571,68.307 36.833,68.139 36.833 C 67.855 36.833,67.833 37.027,67.833 39.583 C 67.833 41.694,67.785 42.324,67.625 42.292 C 67.472 42.261,67.404 42.692,67.368 43.914 C 67.332 45.162,67.260 45.611,67.077 45.714 C 66.929 45.796,66.833 46.102,66.833 46.490 C 66.833 46.894,66.745 47.165,66.593 47.223 C 66.453 47.277,66.332 47.596,66.302 47.994 C 66.273 48.367,66.175 48.669,66.083 48.666 C 65.992 48.662,65.879 49.017,65.833 49.454 C 65.779 49.969,65.676 50.235,65.542 50.208 C 65.412 50.182,65.333 50.356,65.333 50.667 C 65.333 51.000,65.250 51.167,65.083 51.167 C 64.908 51.167,64.833 51.343,64.833 51.755 C 64.833 52.125,64.740 52.380,64.583 52.440 C 64.446 52.492,64.333 52.667,64.333 52.829 C 64.333 52.990,64.110 53.375,63.836 53.686 C 63.562 53.996,63.337 54.386,63.336 54.552 C 63.335 54.717,63.261 54.808,63.172 54.753 C 63.083 54.698,62.959 54.854,62.897 55.101 C 62.780 55.567,62.175 56.281,61.958 56.208 C 61.890 56.185,61.833 56.392,61.833 56.667 C 61.833 57.000,61.750 57.167,61.583 57.167 C 61.446 57.167,61.333 57.232,61.333 57.313 C 61.333 57.541,59.169 59.755,58.992 59.708 C 58.905 59.685,58.833 59.745,58.833 59.840 C 58.833 60.038,58.561 60.396,58.100 60.803 C 57.926 60.957,57.645 61.215,57.475 61.375 C 57.305 61.535,57.092 61.667,57.000 61.667 C 56.908 61.667,56.833 61.779,56.833 61.917 C 56.833 62.054,56.721 62.167,56.583 62.167 C 56.446 62.167,56.333 62.279,56.333 62.417 C 56.333 62.573,56.175 62.667,55.911 62.667 C 55.679 62.667,55.446 62.779,55.394 62.917 C 55.341 63.054,55.193 63.167,55.066 63.167 C 54.938 63.167,54.833 63.279,54.833 63.417 C 54.833 63.554,54.721 63.667,54.583 63.667 C 54.446 63.667,54.333 63.784,54.333 63.927 C 54.333 64.069,54.263 64.143,54.177 64.090 C 54.091 64.036,53.943 64.126,53.849 64.288 C 53.754 64.451,53.675 64.490,53.672 64.375 C 53.669 64.260,53.586 64.167,53.488 64.167 C 53.389 64.167,53.338 64.298,53.373 64.458 C 53.408 64.619,53.538 64.727,53.663 64.699 C 53.850 64.657,53.852 64.694,53.674 64.907 C 53.545 65.063,53.529 65.167,53.634 65.167 C 53.730 65.167,54.037 65.648,54.314 66.236 C 54.592 66.824,54.898 67.353,54.993 67.412 C 55.089 67.471,55.167 67.641,55.167 67.788 C 55.167 67.936,55.273 68.175,55.402 68.320 C 55.893 68.868,57.562 72.434,57.573 72.958 C 57.582 73.425,57.833 73.787,57.833 73.333 C 57.833 73.242,58.009 73.167,58.224 73.167 C 58.439 73.167,58.751 73.017,58.917 72.833 C 59.083 72.650,59.319 72.500,59.442 72.500 C 59.566 72.500,59.667 72.425,59.667 72.333 C 59.667 72.242,59.779 72.167,59.917 72.167 C 60.054 72.167,60.167 72.104,60.167 72.028 C 60.167 71.952,60.373 71.783,60.625 71.653 C 60.877 71.523,61.175 71.304,61.286 71.167 C 61.398 71.029,61.492 70.972,61.495 71.040 C 61.500 71.162,61.942 70.843,62.511 70.306 C 62.673 70.153,62.848 70.070,62.899 70.121 C 62.950 70.172,63.041 70.088,63.100 69.934 C 63.159 69.780,63.423 69.543,63.687 69.406 C 63.951 69.270,64.167 69.048,64.167 68.912 C 64.167 68.777,64.279 68.667,64.417 68.667 C 64.554 68.667,64.817 68.517,65.000 68.333 C 65.183 68.150,65.408 68.000,65.500 68.000 C 65.592 68.000,65.667 67.887,65.667 67.750 C 65.667 67.612,65.779 67.500,65.917 67.500 C 66.054 67.500,66.167 67.387,66.167 67.250 C 66.167 67.112,66.279 67.000,66.417 67.000 C 66.554 67.000,66.667 66.887,66.667 66.750 C 66.667 66.612,66.779 66.500,66.917 66.500 C 67.054 66.500,67.167 66.414,67.167 66.310 C 67.167 66.205,67.392 65.904,67.667 65.642 C 67.942 65.379,68.167 65.087,68.167 64.993 C 68.167 64.900,68.279 64.780,68.417 64.727 C 68.554 64.674,68.667 64.545,68.667 64.441 C 68.667 64.336,68.892 64.100,69.167 63.917 C 69.441 63.733,69.666 63.487,69.666 63.370 C 69.666 63.252,69.779 63.113,69.917 63.060 C 70.054 63.008,70.167 62.793,70.167 62.583 C 70.167 62.374,70.279 62.159,70.417 62.106 C 70.554 62.054,70.667 61.896,70.667 61.755 C 70.667 61.615,70.760 61.519,70.875 61.542 C 70.992 61.565,71.106 61.383,71.136 61.125 C 71.166 60.863,71.291 60.667,71.428 60.667 C 71.559 60.667,71.667 60.525,71.667 60.351 C 71.667 60.178,71.779 59.992,71.917 59.940 C 72.054 59.887,72.167 59.691,72.167 59.505 C 72.167 59.315,72.276 59.167,72.417 59.167 C 72.583 59.167,72.667 59.000,72.667 58.667 C 72.667 58.333,72.750 58.167,72.917 58.167 C 73.083 58.167,73.167 58.000,73.167 57.667 C 73.167 57.333,73.250 57.167,73.417 57.167 C 73.554 57.167,73.667 57.026,73.667 56.854 C 73.667 56.682,73.779 56.447,73.917 56.333 C 74.054 56.219,74.167 55.918,74.167 55.664 C 74.167 55.407,74.278 55.160,74.417 55.106 C 74.560 55.051,74.667 54.803,74.667 54.523 C 74.667 54.244,74.773 53.995,74.917 53.940 C 75.054 53.887,75.167 53.686,75.167 53.493 C 75.167 53.301,75.279 53.030,75.417 52.893 C 75.564 52.745,75.667 52.338,75.667 51.900 C 75.667 51.393,75.746 51.126,75.917 51.060 C 76.072 51.001,76.167 50.747,76.167 50.389 C 76.167 50.073,76.234 49.855,76.316 49.906 C 76.537 50.043,76.667 49.577,76.667 48.641 C 76.667 48.124,76.761 47.715,76.917 47.560 C 77.108 47.368,77.167 46.887,77.167 45.506 C 77.167 44.034,77.214 43.684,77.424 43.604 C 77.770 43.471,77.722 34.889,77.375 34.958 C 77.236 34.986,77.167 34.778,77.167 34.335 C 77.167 33.728,77.131 33.673,76.750 33.705 C 76.521 33.724,76.333 33.780,76.333 33.829 M67.399 35.930 C 67.454 36.075,67.500 36.263,67.500 36.347 C 67.500 36.431,67.567 36.500,67.649 36.500 C 67.731 36.500,67.787 36.313,67.774 36.083 C 67.761 35.854,67.648 35.667,67.524 35.667 C 67.386 35.667,67.337 35.770,67.399 35.930 " stroke="none" fill="#000" fill-rule="evenodd"></path><path id="path2" d="M51.980 64.828 C 51.969 64.877,51.969 64.973,51.980 65.042 C 51.999 65.158,51.744 65.230,51.464 65.188 C 51.399 65.179,51.388 65.282,51.440 65.419 C 51.512 65.605,51.397 65.673,50.976 65.692 C 50.007 65.736,49.916 65.761,49.958 65.966 C 49.994 66.135,49.427 66.260,48.958 66.186 C 48.890 66.176,48.833 66.279,48.833 66.417 C 48.833 66.579,48.657 66.674,48.333 66.688 C 47.520 66.721,47.415 66.755,47.458 66.966 C 47.487 67.103,47.211 67.167,46.589 67.167 C 45.891 67.167,45.697 67.220,45.764 67.392 C 45.830 67.565,45.604 67.627,44.800 67.656 C 43.084 67.719,42.847 67.753,42.635 67.965 C 42.369 68.231,34.724 68.256,34.636 67.991 C 34.560 67.762,34.163 67.695,32.792 67.679 C 31.908 67.669,31.667 67.613,31.667 67.417 C 31.667 67.222,31.444 67.167,30.667 67.167 C 29.889 67.167,29.667 67.111,29.667 66.917 C 29.667 66.749,29.499 66.667,29.161 66.667 C 28.866 66.667,28.616 66.563,28.560 66.417 C 28.498 66.255,28.240 66.167,27.833 66.167 C 27.426 66.167,27.168 66.078,27.106 65.917 C 27.054 65.779,26.821 65.667,26.589 65.667 C 26.357 65.667,26.167 65.594,26.167 65.505 C 26.167 65.416,26.042 65.392,25.889 65.450 C 25.714 65.518,25.653 65.491,25.723 65.377 C 25.793 65.263,25.712 65.229,25.500 65.285 C 25.317 65.333,25.167 65.511,25.167 65.680 C 25.167 66.163,24.526 67.752,24.162 68.172 C 23.981 68.380,23.833 68.675,23.833 68.826 C 23.833 68.976,23.765 69.171,23.682 69.258 C 23.457 69.495,22.833 70.653,22.833 70.836 C 22.833 70.923,22.608 71.361,22.333 71.808 C 22.058 72.255,21.833 72.724,21.832 72.852 C 21.832 72.979,21.722 73.292,21.589 73.547 C 21.456 73.802,21.419 73.967,21.507 73.912 C 21.595 73.858,21.667 73.968,21.667 74.157 C 21.667 74.410,21.774 74.500,22.074 74.500 C 22.298 74.500,22.579 74.635,22.699 74.799 C 22.963 75.162,24.001 75.667,24.484 75.667 C 24.676 75.667,24.833 75.726,24.833 75.799 C 24.833 75.872,25.115 76.013,25.458 76.114 C 26.290 76.357,27.230 76.726,27.333 76.850 C 27.379 76.905,27.529 76.959,27.667 76.971 C 28.877 77.075,29.768 77.241,29.858 77.380 C 30.289 78.049,47.062 78.005,47.733 77.333 C 47.825 77.242,48.204 77.166,48.575 77.166 C 48.946 77.165,49.459 77.055,49.715 76.922 C 49.971 76.788,50.440 76.630,50.757 76.571 C 51.074 76.512,51.333 76.396,51.333 76.315 C 51.333 76.233,51.553 76.167,51.821 76.167 C 52.090 76.167,52.422 76.054,52.560 75.917 C 52.697 75.779,52.927 75.667,53.070 75.667 C 53.438 75.667,54.667 75.116,54.667 74.951 C 54.667 74.875,54.742 74.860,54.835 74.917 C 54.927 74.974,55.046 74.909,55.098 74.771 C 55.151 74.634,55.287 74.556,55.399 74.600 C 55.512 74.643,55.743 74.526,55.911 74.339 C 56.080 74.153,56.353 74.000,56.517 74.000 C 57.079 74.000,57.719 73.232,57.590 72.713 C 57.448 72.140,55.725 68.680,55.402 68.320 C 55.273 68.175,55.167 67.936,55.167 67.788 C 55.167 67.641,55.089 67.471,54.993 67.412 C 54.898 67.353,54.592 66.824,54.314 66.236 C 54.037 65.648,53.730 65.167,53.634 65.167 C 53.516 65.167,53.519 65.094,53.643 64.945 C 53.792 64.766,53.654 64.726,52.913 64.732 C 52.411 64.736,51.991 64.779,51.980 64.828 " stroke="none" fill="#000" fill-rule="evenodd"></path><path id="path3" d="M61.333 7.675 C 61.911 8.067,62.241 8.181,61.833 7.848 C 61.604 7.661,61.342 7.507,61.250 7.506 C 61.158 7.506,61.196 7.581,61.333 7.675 M64.167 9.994 C 64.167 10.083,64.309 10.231,64.484 10.325 C 64.753 10.469,64.788 10.445,64.714 10.164 C 64.628 9.833,64.167 9.690,64.167 9.994 M63.750 12.372 C 63.200 12.898,62.675 13.329,62.583 13.331 C 62.492 13.333,62.049 13.716,61.600 14.181 C 61.151 14.646,60.603 15.096,60.382 15.180 C 60.161 15.264,60.021 15.399,60.071 15.479 C 60.120 15.560,59.844 15.834,59.456 16.089 C 58.443 16.754,57.967 17.285,58.279 17.405 C 58.412 17.456,58.479 17.565,58.428 17.648 C 58.377 17.731,58.447 17.841,58.584 17.894 C 58.721 17.947,58.833 18.186,58.833 18.426 C 58.833 18.758,58.953 18.908,59.333 19.051 C 59.608 19.155,59.833 19.357,59.833 19.499 C 59.833 19.642,59.965 19.883,60.125 20.035 C 60.591 20.475,60.833 20.805,60.833 21.003 C 60.833 21.104,60.913 21.137,61.011 21.076 C 61.109 21.016,61.230 21.124,61.281 21.317 C 61.331 21.509,61.476 21.667,61.603 21.667 C 61.807 21.667,61.918 21.991,61.849 22.387 C 61.836 22.463,61.893 22.483,61.977 22.431 C 62.174 22.309,62.536 22.742,62.374 22.904 C 62.306 22.972,62.361 23.003,62.496 22.972 C 62.646 22.938,62.764 23.064,62.799 23.292 C 62.831 23.498,62.964 23.667,63.095 23.667 C 63.249 23.667,63.333 23.844,63.333 24.167 C 63.333 24.500,63.417 24.667,63.583 24.667 C 63.724 24.667,63.833 24.815,63.833 25.005 C 63.833 25.191,63.946 25.387,64.083 25.440 C 64.221 25.492,64.333 25.711,64.333 25.926 C 64.333 26.141,64.439 26.377,64.569 26.450 C 64.698 26.523,64.830 26.808,64.861 27.083 C 64.893 27.373,65.004 27.566,65.125 27.542 C 65.255 27.516,65.333 27.690,65.333 28.005 C 65.333 28.301,65.437 28.550,65.583 28.606 C 65.746 28.669,65.833 28.927,65.833 29.343 C 65.833 29.728,65.929 30.037,66.074 30.118 C 66.213 30.196,66.333 30.554,66.357 30.960 C 66.383 31.409,66.478 31.667,66.616 31.667 C 66.743 31.667,66.833 31.860,66.833 32.130 C 66.833 32.384,66.942 32.747,67.074 32.936 C 67.218 33.142,67.328 33.755,67.349 34.473 C 67.373 35.291,67.449 35.667,67.590 35.667 C 67.703 35.667,67.793 35.760,67.789 35.875 C 67.746 37.029,67.956 37.071,69.644 36.250 C 70.303 35.929,70.929 35.667,71.034 35.667 C 71.282 35.667,72.327 35.338,72.721 35.137 C 72.889 35.051,73.227 34.954,73.471 34.922 C 73.716 34.889,74.142 34.767,74.417 34.649 C 74.692 34.531,74.992 34.428,75.083 34.420 C 75.392 34.392,76.333 33.920,76.333 33.793 C 76.333 33.723,76.390 33.676,76.458 33.686 C 77.205 33.804,77.464 32.642,76.897 31.720 C 76.702 31.403,76.711 31.347,76.962 31.281 C 77.232 31.210,77.231 31.204,76.958 31.186 C 76.688 31.168,76.538 30.273,76.654 29.375 C 76.669 29.260,76.547 29.161,76.382 29.155 C 76.112 29.144,76.114 29.131,76.404 29.017 C 76.692 28.905,76.696 28.880,76.446 28.784 C 76.249 28.709,76.167 28.480,76.167 28.005 C 76.167 27.519,76.098 27.333,75.917 27.333 C 75.743 27.333,75.667 27.159,75.667 26.764 C 75.667 26.068,75.516 25.637,75.316 25.761 C 75.234 25.812,75.167 25.546,75.167 25.171 C 75.167 24.719,75.083 24.457,74.917 24.394 C 74.774 24.339,74.667 24.090,74.667 23.816 C 74.667 23.498,74.581 23.333,74.417 23.333 C 74.242 23.333,74.167 23.157,74.167 22.745 C 74.167 22.375,74.074 22.120,73.917 22.060 C 73.779 22.008,73.667 21.830,73.667 21.667 C 73.667 21.503,73.554 21.326,73.417 21.273 C 73.279 21.220,73.167 20.995,73.167 20.773 C 73.167 20.551,73.054 20.326,72.917 20.273 C 72.779 20.220,72.667 19.990,72.667 19.760 C 72.667 19.469,72.596 19.371,72.430 19.435 C 72.275 19.494,72.173 19.392,72.134 19.138 C 72.102 18.924,71.983 18.769,71.871 18.792 C 71.755 18.815,71.667 18.662,71.667 18.437 C 71.667 18.219,71.554 17.947,71.417 17.833 C 71.279 17.719,71.167 17.523,71.167 17.396 C 71.167 17.270,71.054 17.167,70.917 17.167 C 70.779 17.167,70.667 17.062,70.667 16.934 C 70.667 16.807,70.554 16.659,70.417 16.606 C 70.279 16.554,70.167 16.358,70.167 16.172 C 70.167 15.982,70.057 15.833,69.917 15.833 C 69.779 15.833,69.667 15.688,69.667 15.510 C 69.667 15.332,69.329 14.844,68.917 14.426 C 68.504 14.007,68.167 13.590,68.167 13.499 C 68.167 13.408,68.054 13.333,67.917 13.333 C 67.779 13.333,67.667 13.221,67.667 13.083 C 67.667 12.946,67.554 12.833,67.417 12.833 C 67.279 12.833,67.167 12.730,67.167 12.603 C 67.167 12.476,67.009 12.331,66.817 12.281 C 66.624 12.230,66.511 12.118,66.565 12.030 C 66.619 11.943,66.506 11.830,66.315 11.780 C 66.121 11.729,66.016 11.609,66.077 11.509 C 66.517 10.799,64.687 11.477,63.750 12.372 " stroke="none" fill="#000" fill-rule="evenodd"></path><path id="path4" d="M92.333 38.917 L 92.333 65.167 97.000 65.167 L 101.667 65.167 101.667 56.917 L 101.667 48.667 107.089 48.667 C 111.754 48.667,112.524 48.632,112.606 48.417 C 112.682 48.220,113.021 48.167,114.184 48.167 C 115.391 48.167,115.667 48.120,115.667 47.917 C 115.667 47.728,115.869 47.667,116.488 47.667 C 116.996 47.667,117.405 47.571,117.560 47.417 C 117.697 47.279,117.970 47.167,118.167 47.167 C 118.363 47.167,118.636 47.054,118.774 46.917 C 118.911 46.779,119.281 46.667,119.595 46.667 C 119.992 46.667,120.167 46.590,120.167 46.417 C 120.167 46.250,120.333 46.167,120.667 46.167 C 121.000 46.167,121.167 46.083,121.167 45.917 C 121.167 45.760,121.325 45.667,121.589 45.667 C 121.821 45.667,122.054 45.554,122.106 45.417 C 122.159 45.279,122.307 45.167,122.434 45.167 C 122.562 45.167,122.667 45.054,122.667 44.917 C 122.667 44.760,122.825 44.667,123.089 44.667 C 123.321 44.667,123.554 44.554,123.606 44.417 C 123.659 44.279,123.807 44.167,123.934 44.167 C 124.062 44.167,124.167 44.054,124.167 43.917 C 124.167 43.779,124.279 43.667,124.417 43.667 C 124.554 43.667,124.667 43.554,124.667 43.417 C 124.667 43.279,124.779 43.167,124.917 43.167 C 125.054 43.167,125.167 43.054,125.167 42.917 C 125.167 42.779,125.279 42.667,125.417 42.667 C 125.554 42.667,125.667 42.554,125.667 42.417 C 125.667 42.279,125.779 42.167,125.917 42.167 C 126.054 42.167,126.167 42.054,126.167 41.917 C 126.167 41.779,126.279 41.667,126.417 41.667 C 126.554 41.667,126.667 41.554,126.667 41.417 C 126.667 41.279,126.779 41.167,126.917 41.167 C 127.083 41.167,127.167 41.000,127.167 40.667 C 127.167 40.333,127.250 40.167,127.417 40.167 C 127.554 40.167,127.667 40.062,127.667 39.934 C 127.667 39.807,127.779 39.659,127.917 39.606 C 128.054 39.554,128.167 39.321,128.167 39.089 C 128.167 38.825,128.260 38.667,128.417 38.667 C 128.581 38.667,128.667 38.502,128.667 38.184 C 128.667 37.910,128.774 37.661,128.917 37.606 C 129.082 37.543,129.167 37.282,129.167 36.839 C 129.167 36.352,129.236 36.167,129.417 36.167 C 129.611 36.167,129.667 35.944,129.667 35.167 C 129.667 34.389,129.722 34.167,129.917 34.167 C 130.133 34.167,130.167 33.556,130.167 29.667 C 130.167 25.778,130.133 25.167,129.917 25.167 C 129.725 25.167,129.667 24.954,129.667 24.250 C 129.667 23.546,129.609 23.333,129.417 23.333 C 129.242 23.333,129.167 23.157,129.167 22.750 C 129.167 22.343,129.091 22.167,128.917 22.167 C 128.750 22.167,128.667 22.000,128.667 21.667 C 128.667 21.333,128.583 21.167,128.417 21.167 C 128.260 21.167,128.167 21.009,128.167 20.745 C 128.167 20.513,128.054 20.280,127.917 20.227 C 127.779 20.174,127.667 20.027,127.667 19.899 C 127.667 19.771,127.562 19.667,127.435 19.667 C 127.307 19.667,127.156 19.479,127.098 19.250 C 127.041 19.021,126.920 18.833,126.830 18.833 C 126.740 18.833,126.667 18.755,126.667 18.660 C 126.667 18.324,124.768 16.667,124.383 16.667 C 124.264 16.667,124.167 16.554,124.167 16.417 C 124.167 16.279,124.062 16.167,123.934 16.167 C 123.807 16.167,123.659 16.054,123.606 15.917 C 123.554 15.779,123.321 15.667,123.089 15.667 C 122.825 15.667,122.667 15.573,122.667 15.417 C 122.667 15.260,122.509 15.167,122.245 15.167 C 122.013 15.167,121.780 15.054,121.727 14.917 C 121.672 14.774,121.424 14.667,121.149 14.667 C 120.831 14.667,120.667 14.581,120.667 14.417 C 120.667 14.250,120.500 14.167,120.167 14.167 C 119.892 14.167,119.667 14.095,119.667 14.008 C 119.667 13.920,119.385 13.803,119.042 13.748 C 118.698 13.692,118.218 13.539,117.974 13.407 C 117.731 13.275,117.120 13.167,116.617 13.167 C 115.958 13.167,115.676 13.097,115.606 12.917 C 115.522 12.698,114.069 12.667,103.922 12.667 L 92.333 12.667 92.333 38.917 M112.574 21.422 C 112.751 21.557,113.249 21.667,113.678 21.667 C 114.169 21.667,114.536 21.760,114.667 21.917 C 114.781 22.054,115.090 22.167,115.354 22.167 C 115.669 22.167,115.833 22.252,115.833 22.417 C 115.833 22.583,116.000 22.667,116.333 22.667 C 116.667 22.667,116.833 22.750,116.833 22.917 C 116.833 23.054,116.946 23.167,117.083 23.167 C 117.221 23.167,117.333 23.279,117.333 23.417 C 117.333 23.554,117.469 23.667,117.635 23.667 C 118.011 23.667,118.833 24.502,118.833 24.884 C 118.833 25.040,118.946 25.167,119.083 25.167 C 119.221 25.167,119.333 25.279,119.333 25.417 C 119.333 25.554,119.446 25.667,119.583 25.667 C 119.750 25.667,119.833 25.833,119.833 26.167 C 119.833 26.500,119.917 26.667,120.083 26.667 C 120.269 26.667,120.333 26.861,120.333 27.417 C 120.333 27.972,120.398 28.167,120.583 28.167 C 120.793 28.167,120.833 28.528,120.833 30.417 C 120.833 32.306,120.793 32.667,120.583 32.667 C 120.404 32.667,120.333 32.850,120.333 33.316 C 120.333 33.738,120.246 33.998,120.083 34.060 C 119.946 34.113,119.833 34.301,119.833 34.477 C 119.833 34.653,119.721 34.841,119.583 34.894 C 119.446 34.946,119.333 35.142,119.333 35.328 C 119.333 35.518,119.224 35.667,119.083 35.667 C 118.946 35.667,118.833 35.779,118.833 35.917 C 118.833 36.054,118.721 36.167,118.583 36.167 C 118.446 36.167,118.333 36.279,118.333 36.417 C 118.333 36.554,118.221 36.667,118.083 36.667 C 117.946 36.667,117.833 36.779,117.833 36.917 C 117.833 37.054,117.721 37.167,117.583 37.167 C 117.446 37.167,117.333 37.279,117.333 37.417 C 117.333 37.554,117.221 37.667,117.083 37.667 C 116.946 37.667,116.833 37.779,116.833 37.917 C 116.833 38.083,116.667 38.167,116.333 38.167 C 116.000 38.167,115.833 38.250,115.833 38.417 C 115.833 38.583,115.667 38.667,115.333 38.667 C 115.000 38.667,114.833 38.750,114.833 38.917 C 114.833 39.102,114.639 39.167,114.083 39.167 C 113.528 39.167,113.333 39.231,113.333 39.417 C 113.333 39.622,113.036 39.667,111.661 39.667 C 110.329 39.667,109.970 39.717,109.894 39.917 C 109.812 40.129,109.192 40.167,105.732 40.167 L 101.667 40.167 101.667 30.667 L 101.667 21.167 106.958 21.172 C 111.347 21.176,112.305 21.219,112.574 21.422 M148.394 27.417 C 148.318 27.613,147.979 27.667,146.816 27.667 C 145.609 27.667,145.333 27.713,145.333 27.917 C 145.333 28.102,145.139 28.167,144.583 28.167 C 144.028 28.167,143.833 28.231,143.833 28.417 C 143.833 28.598,143.648 28.667,143.161 28.667 C 142.718 28.667,142.457 28.752,142.394 28.917 C 142.341 29.054,142.116 29.167,141.894 29.167 C 141.671 29.167,141.446 29.279,141.394 29.417 C 141.341 29.554,141.225 29.667,141.137 29.667 C 141.049 29.667,140.864 29.779,140.726 29.917 C 140.589 30.054,140.332 30.167,140.155 30.167 C 139.978 30.167,139.833 30.279,139.833 30.417 C 139.833 30.554,139.721 30.667,139.583 30.667 C 139.446 30.667,139.333 30.779,139.333 30.917 C 139.333 31.073,139.175 31.167,138.911 31.167 C 138.679 31.167,138.446 31.279,138.394 31.417 C 138.341 31.554,138.193 31.667,138.066 31.667 C 137.938 31.667,137.833 31.779,137.833 31.917 C 137.833 32.054,137.721 32.167,137.583 32.167 C 137.446 32.167,137.333 32.279,137.333 32.417 C 137.333 32.554,137.221 32.667,137.083 32.667 C 136.946 32.667,136.833 32.779,136.833 32.917 C 136.833 33.054,136.721 33.167,136.583 33.167 C 136.446 33.167,136.333 33.279,136.333 33.417 C 136.333 33.554,136.221 33.667,136.083 33.667 C 135.946 33.667,135.833 33.779,135.833 33.917 C 135.833 34.054,135.721 34.167,135.583 34.167 C 135.417 34.167,135.333 34.333,135.333 34.667 C 135.333 35.000,135.250 35.167,135.083 35.167 C 134.946 35.167,134.833 35.279,134.833 35.417 C 134.833 35.554,134.721 35.667,134.583 35.667 C 134.417 35.667,134.333 35.833,134.333 36.167 C 134.333 36.500,134.250 36.667,134.083 36.667 C 133.946 36.667,133.833 36.771,133.833 36.899 C 133.833 37.027,133.721 37.174,133.583 37.227 C 133.446 37.280,133.333 37.505,133.333 37.727 C 133.333 37.949,133.221 38.174,133.083 38.227 C 132.918 38.290,132.833 38.551,132.833 38.995 C 132.833 39.481,132.764 39.667,132.583 39.667 C 132.410 39.667,132.333 39.841,132.333 40.232 C 132.333 40.581,132.238 40.834,132.083 40.894 C 131.907 40.961,131.833 41.237,131.833 41.833 C 131.833 42.430,131.760 42.705,131.583 42.773 C 131.370 42.855,131.333 43.512,131.333 47.268 C 131.333 51.067,131.367 51.667,131.583 51.667 C 131.778 51.667,131.833 51.889,131.833 52.667 C 131.833 53.444,131.889 53.667,132.083 53.667 C 132.269 53.667,132.333 53.861,132.333 54.417 C 132.333 54.972,132.398 55.167,132.583 55.167 C 132.750 55.167,132.833 55.333,132.833 55.667 C 132.833 56.000,132.917 56.167,133.083 56.167 C 133.250 56.167,133.333 56.333,133.333 56.667 C 133.333 57.000,133.417 57.167,133.583 57.167 C 133.750 57.167,133.833 57.333,133.833 57.667 C 133.833 58.000,133.917 58.167,134.083 58.167 C 134.224 58.167,134.333 58.315,134.333 58.505 C 134.333 58.691,134.446 58.887,134.583 58.940 C 134.721 58.992,134.833 59.178,134.833 59.351 C 134.833 59.525,134.946 59.667,135.083 59.667 C 135.221 59.667,135.333 59.779,135.333 59.917 C 135.333 60.054,135.446 60.167,135.583 60.167 C 135.721 60.167,135.833 60.279,135.833 60.417 C 135.833 60.554,135.946 60.667,136.083 60.667 C 136.221 60.667,136.333 60.779,136.333 60.917 C 136.333 61.054,136.446 61.167,136.583 61.167 C 136.721 61.167,136.833 61.279,136.833 61.417 C 136.833 61.554,136.946 61.667,137.083 61.667 C 137.221 61.667,137.333 61.779,137.333 61.917 C 137.333 62.054,137.446 62.167,137.583 62.167 C 137.721 62.167,137.833 62.279,137.833 62.417 C 137.833 62.554,137.938 62.667,138.066 62.667 C 138.193 62.667,138.341 62.779,138.394 62.917 C 138.446 63.054,138.679 63.167,138.911 63.167 C 139.175 63.167,139.333 63.260,139.333 63.417 C 139.333 63.554,139.446 63.667,139.583 63.667 C 139.721 63.667,139.833 63.734,139.833 63.815 C 139.833 63.897,140.030 64.013,140.270 64.073 C 140.510 64.134,140.816 64.292,140.949 64.425 C 141.082 64.558,141.448 64.667,141.762 64.667 C 142.159 64.667,142.333 64.743,142.333 64.917 C 142.333 65.102,142.528 65.167,143.083 65.167 C 143.639 65.167,143.833 65.231,143.833 65.417 C 143.833 65.615,144.075 65.667,145.012 65.667 C 145.837 65.667,146.265 65.742,146.440 65.917 C 146.790 66.266,150.365 66.280,150.654 65.933 C 150.789 65.770,151.335 65.681,152.452 65.641 C 153.544 65.602,154.078 65.517,154.125 65.375 C 154.167 65.250,154.490 65.167,154.931 65.167 C 155.442 65.167,155.667 65.097,155.667 64.939 C 155.667 64.797,155.929 64.675,156.357 64.618 C 156.737 64.567,157.094 64.451,157.151 64.359 C 157.207 64.268,157.459 64.142,157.710 64.078 C 157.961 64.015,158.167 63.897,158.167 63.815 C 158.167 63.734,158.279 63.667,158.417 63.667 C 158.554 63.667,158.667 63.554,158.667 63.417 C 158.667 63.260,158.825 63.167,159.089 63.167 C 159.321 63.167,159.554 63.054,159.606 62.917 C 159.659 62.779,159.807 62.667,159.934 62.667 C 160.062 62.667,160.167 62.554,160.167 62.417 C 160.167 62.279,160.279 62.167,160.417 62.167 C 160.554 62.167,160.667 62.054,160.667 61.917 C 160.667 61.779,160.779 61.667,160.917 61.667 C 161.054 61.667,161.167 61.554,161.167 61.417 C 161.167 61.279,161.274 61.167,161.404 61.167 C 161.535 61.167,161.677 61.035,161.718 60.875 C 161.760 60.715,161.803 61.615,161.814 62.875 L 161.833 65.167 166.250 65.167 L 170.667 65.167 170.667 46.667 L 170.667 28.167 166.250 28.167 L 161.833 28.167 161.814 30.208 C 161.803 31.331,161.760 32.119,161.718 31.958 C 161.677 31.798,161.535 31.667,161.404 31.667 C 161.274 31.667,161.167 31.554,161.167 31.417 C 161.167 31.279,161.054 31.167,160.917 31.167 C 160.779 31.167,160.667 31.054,160.667 30.917 C 160.667 30.779,160.554 30.667,160.417 30.667 C 160.279 30.667,160.167 30.571,160.167 30.454 C 160.167 30.337,159.830 30.093,159.418 29.912 C 159.007 29.731,158.669 29.490,158.668 29.375 C 158.667 29.255,158.455 29.167,158.167 29.167 C 157.833 29.167,157.667 29.083,157.667 28.917 C 157.667 28.752,157.502 28.667,157.184 28.667 C 156.910 28.667,156.661 28.559,156.606 28.417 C 156.544 28.253,156.284 28.167,155.852 28.167 C 155.474 28.167,155.165 28.078,155.125 27.958 C 155.078 27.815,154.526 27.732,153.361 27.693 C 152.043 27.648,151.667 27.583,151.667 27.401 C 151.667 27.047,148.530 27.062,148.394 27.417 M230.702 27.423 C 230.537 27.610,230.045 27.667,228.589 27.667 C 227.124 27.667,226.633 27.724,226.440 27.917 C 226.300 28.057,225.893 28.167,225.512 28.167 C 225.020 28.167,224.833 28.235,224.833 28.417 C 224.833 28.602,224.639 28.667,224.083 28.667 C 223.528 28.667,223.333 28.731,223.333 28.917 C 223.333 29.083,223.167 29.167,222.833 29.167 C 222.500 29.167,222.333 29.250,222.333 29.417 C 222.333 29.583,222.167 29.667,221.833 29.667 C 221.500 29.667,221.333 29.750,221.333 29.917 C 221.333 30.054,221.253 30.167,221.155 30.167 C 221.057 30.167,220.864 30.279,220.726 30.417 C 220.589 30.554,220.332 30.667,220.155 30.667 C 219.978 30.667,219.833 30.779,219.833 30.917 C 219.833 31.054,219.721 31.167,219.583 31.167 C 219.446 31.167,219.333 31.271,219.333 31.399 C 219.333 31.526,219.159 31.674,218.945 31.728 C 218.732 31.781,218.353 32.015,218.103 32.246 C 217.854 32.477,217.578 32.667,217.491 32.667 C 217.404 32.667,217.333 32.771,217.333 32.899 C 217.333 33.027,217.221 33.174,217.083 33.227 C 216.946 33.280,216.833 33.430,216.833 33.560 C 216.833 33.691,216.721 33.841,216.583 33.894 C 216.446 33.946,216.333 34.142,216.333 34.328 C 216.333 34.518,216.224 34.667,216.083 34.667 C 215.946 34.667,215.833 34.779,215.833 34.917 C 215.833 35.054,215.721 35.167,215.583 35.167 C 215.446 35.167,215.333 35.271,215.333 35.399 C 215.333 35.527,215.221 35.674,215.083 35.727 C 214.946 35.780,214.833 36.013,214.833 36.245 C 214.833 36.509,214.740 36.667,214.583 36.667 C 214.417 36.667,214.333 36.833,214.333 37.167 C 214.333 37.500,214.250 37.667,214.083 37.667 C 213.917 37.667,213.833 37.833,213.833 38.167 C 213.833 38.500,213.750 38.667,213.583 38.667 C 213.419 38.667,213.333 38.831,213.333 39.146 C 213.333 39.410,213.221 39.719,213.083 39.833 C 212.924 39.966,212.833 40.334,212.833 40.854 C 212.833 41.465,212.771 41.667,212.583 41.667 C 212.384 41.667,212.333 41.915,212.333 42.899 C 212.333 43.840,212.274 44.154,212.083 44.227 C 211.876 44.306,211.833 44.756,211.833 46.833 C 211.833 48.911,211.876 49.360,212.083 49.440 C 212.276 49.514,212.333 49.836,212.333 50.851 C 212.333 51.909,212.382 52.167,212.583 52.167 C 212.775 52.167,212.833 52.378,212.833 53.066 C 212.833 53.711,212.904 53.991,213.083 54.060 C 213.229 54.116,213.333 54.366,213.333 54.661 C 213.333 54.999,213.416 55.167,213.583 55.167 C 213.751 55.167,213.833 55.334,213.833 55.672 C 213.833 55.967,213.937 56.217,214.083 56.273 C 214.221 56.326,214.333 56.548,214.333 56.768 C 214.333 57.011,214.431 57.167,214.583 57.167 C 214.750 57.167,214.833 57.333,214.833 57.667 C 214.833 58.000,214.917 58.167,215.083 58.167 C 215.221 58.167,215.333 58.279,215.333 58.417 C 215.333 58.554,215.446 58.667,215.583 58.667 C 215.739 58.667,215.833 58.824,215.833 59.083 C 215.833 59.343,215.928 59.500,216.083 59.500 C 216.221 59.500,216.333 59.615,216.333 59.755 C 216.333 59.896,216.446 60.054,216.583 60.106 C 216.721 60.159,216.833 60.307,216.833 60.434 C 216.833 60.562,216.946 60.667,217.083 60.667 C 217.221 60.667,217.333 60.779,217.333 60.917 C 217.333 61.054,217.412 61.167,217.508 61.167 C 217.604 61.167,217.852 61.349,218.058 61.572 C 218.265 61.795,218.636 62.028,218.883 62.090 C 219.131 62.152,219.333 62.307,219.333 62.435 C 219.333 62.562,219.446 62.667,219.583 62.667 C 219.721 62.667,219.833 62.779,219.833 62.917 C 219.833 63.083,220.000 63.167,220.333 63.167 C 220.620 63.167,220.835 63.256,220.837 63.375 C 220.843 63.643,221.891 64.167,222.424 64.167 C 222.677 64.167,222.833 64.262,222.833 64.417 C 222.833 64.574,222.992 64.667,223.262 64.667 C 223.498 64.667,223.803 64.779,223.940 64.917 C 224.078 65.054,224.429 65.169,224.720 65.172 C 225.012 65.175,225.396 65.287,225.574 65.422 C 225.788 65.585,226.300 65.667,227.097 65.667 C 228.033 65.667,228.320 65.724,228.398 65.928 C 228.530 66.273,234.010 66.222,234.125 65.875 C 234.171 65.737,234.554 65.667,235.252 65.667 C 235.970 65.667,236.390 65.586,236.560 65.417 C 236.697 65.279,237.080 65.167,237.410 65.167 C 237.790 65.167,238.046 65.075,238.106 64.917 C 238.160 64.777,238.408 64.667,238.667 64.667 C 238.926 64.667,239.173 64.556,239.227 64.417 C 239.280 64.279,239.472 64.167,239.655 64.167 C 240.124 64.167,241.158 63.624,241.163 63.375 C 241.165 63.256,241.380 63.167,241.667 63.167 C 242.000 63.167,242.167 63.083,242.167 62.917 C 242.167 62.779,242.279 62.667,242.417 62.667 C 242.554 62.667,242.667 62.562,242.667 62.435 C 242.667 62.307,242.869 62.152,243.117 62.090 C 243.364 62.028,243.735 61.795,243.942 61.572 C 244.148 61.349,244.396 61.167,244.492 61.167 C 244.588 61.167,244.667 61.054,244.667 60.917 C 244.667 60.779,244.779 60.667,244.917 60.667 C 245.054 60.667,245.167 60.554,245.167 60.417 C 245.167 60.279,245.279 60.167,245.417 60.167 C 245.554 60.167,245.667 60.062,245.667 59.934 C 245.667 59.807,245.779 59.659,245.917 59.606 C 246.054 59.554,246.167 59.356,246.167 59.167 C 246.167 58.978,246.279 58.780,246.417 58.727 C 246.554 58.674,246.667 58.527,246.667 58.399 C 246.667 58.271,246.779 58.167,246.917 58.167 C 247.054 58.167,247.167 58.052,247.167 57.911 C 247.167 57.771,247.279 57.613,247.417 57.560 C 247.554 57.508,247.667 57.285,247.667 57.066 C 247.667 56.822,247.764 56.667,247.917 56.667 C 248.083 56.667,248.167 56.500,248.167 56.167 C 248.167 55.833,248.250 55.667,248.417 55.667 C 248.583 55.667,248.667 55.500,248.667 55.167 C 248.667 54.833,248.750 54.667,248.917 54.667 C 249.102 54.667,249.167 54.472,249.167 53.917 C 249.167 53.361,249.231 53.167,249.417 53.167 C 249.602 53.167,249.667 52.972,249.667 52.411 C 249.667 51.894,249.745 51.626,249.917 51.560 C 250.131 51.478,250.167 50.794,250.167 46.816 C 250.167 42.794,250.133 42.167,249.917 42.167 C 249.722 42.167,249.667 41.944,249.667 41.167 C 249.667 40.389,249.611 40.167,249.417 40.167 C 249.236 40.167,249.167 39.981,249.167 39.495 C 249.167 39.051,249.082 38.790,248.917 38.727 C 248.774 38.672,248.667 38.424,248.667 38.149 C 248.667 37.831,248.581 37.667,248.417 37.667 C 248.250 37.667,248.167 37.500,248.167 37.167 C 248.167 36.833,248.083 36.667,247.917 36.667 C 247.776 36.667,247.667 36.518,247.667 36.328 C 247.667 36.142,247.554 35.946,247.417 35.894 C 247.279 35.841,247.167 35.656,247.167 35.482 C 247.167 35.309,247.054 35.167,246.917 35.167 C 246.779 35.167,246.667 35.054,246.667 34.917 C 246.667 34.779,246.554 34.667,246.417 34.667 C 246.264 34.667,246.167 34.511,246.167 34.268 C 246.167 34.048,246.054 33.826,245.917 33.773 C 245.779 33.720,245.667 33.562,245.667 33.422 C 245.667 33.282,245.554 33.167,245.417 33.167 C 245.279 33.167,245.167 33.054,245.167 32.917 C 245.167 32.779,245.054 32.667,244.917 32.667 C 244.779 32.667,244.667 32.554,244.667 32.417 C 244.667 32.279,244.586 32.167,244.488 32.167 C 244.390 32.167,244.197 32.054,244.060 31.917 C 243.922 31.779,243.665 31.667,243.488 31.667 C 243.311 31.667,243.167 31.554,243.167 31.417 C 243.167 31.279,243.054 31.167,242.917 31.167 C 242.779 31.167,242.667 31.054,242.667 30.917 C 242.667 30.779,242.586 30.667,242.488 30.667 C 242.390 30.667,242.197 30.554,242.060 30.417 C 241.922 30.279,241.665 30.167,241.488 30.167 C 241.311 30.167,241.167 30.054,241.167 29.917 C 241.167 29.750,241.000 29.667,240.667 29.667 C 240.333 29.667,240.167 29.583,240.167 29.417 C 240.167 29.250,240.000 29.167,239.667 29.167 C 239.333 29.167,239.167 29.083,239.167 28.917 C 239.167 28.731,238.972 28.667,238.417 28.667 C 237.861 28.667,237.667 28.602,237.667 28.417 C 237.667 28.234,237.474 28.165,236.958 28.161 C 236.569 28.158,236.104 28.046,235.926 27.911 C 235.685 27.729,235.109 27.667,233.653 27.667 C 232.073 27.667,231.684 27.619,231.606 27.417 C 231.485 27.100,230.983 27.104,230.702 27.423 M275.333 27.417 C 275.333 27.625,275.000 27.667,273.333 27.667 C 271.667 27.667,271.333 27.708,271.333 27.917 C 271.333 28.102,271.139 28.167,270.583 28.167 C 270.028 28.167,269.833 28.231,269.833 28.417 C 269.833 28.602,269.639 28.667,269.083 28.667 C 268.528 28.667,268.333 28.731,268.333 28.917 C 268.333 29.083,268.167 29.167,267.833 29.167 C 267.500 29.167,267.333 29.250,267.333 29.417 C 267.333 29.554,267.253 29.667,267.155 29.667 C 267.057 29.667,266.864 29.779,266.726 29.917 C 266.589 30.054,266.332 30.167,266.155 30.167 C 265.978 30.167,265.833 30.279,265.833 30.417 C 265.833 30.554,265.721 30.667,265.583 30.667 C 265.446 30.667,265.333 30.779,265.333 30.917 C 265.333 31.054,265.221 31.167,265.083 31.167 C 264.946 31.167,264.833 31.279,264.833 31.417 C 264.833 31.554,264.726 31.667,264.596 31.667 C 264.465 31.667,264.323 31.798,264.282 31.958 C 264.240 32.119,264.197 31.331,264.186 30.208 L 264.167 28.167 259.750 28.167 L 255.333 28.167 255.333 46.667 L 255.333 65.167 259.750 65.167 L 264.167 65.167 264.167 54.434 C 264.167 45.049,264.198 43.690,264.417 43.606 C 264.597 43.537,264.667 43.254,264.667 42.589 C 264.667 41.880,264.725 41.667,264.917 41.667 C 265.083 41.667,265.167 41.500,265.167 41.167 C 265.167 40.833,265.250 40.667,265.417 40.667 C 265.583 40.667,265.667 40.500,265.667 40.167 C 265.667 39.833,265.750 39.667,265.917 39.667 C 266.054 39.667,266.167 39.554,266.167 39.417 C 266.167 39.279,266.279 39.167,266.417 39.167 C 266.554 39.167,266.667 39.054,266.667 38.917 C 266.667 38.779,266.779 38.667,266.917 38.667 C 267.054 38.667,267.167 38.554,267.167 38.417 C 267.167 38.279,267.279 38.167,267.417 38.167 C 267.554 38.167,267.667 38.054,267.667 37.917 C 267.667 37.779,267.779 37.667,267.917 37.667 C 268.054 37.667,268.167 37.554,268.167 37.417 C 268.167 37.250,268.333 37.167,268.667 37.167 C 269.000 37.167,269.167 37.083,269.167 36.917 C 269.167 36.750,269.333 36.667,269.667 36.667 C 270.000 36.667,270.167 36.583,270.167 36.417 C 270.167 36.231,270.361 36.167,270.917 36.167 C 271.472 36.167,271.667 36.102,271.667 35.917 C 271.667 35.561,274.602 35.565,275.074 35.922 C 275.251 36.057,275.720 36.167,276.115 36.167 C 276.586 36.167,276.833 36.240,276.833 36.379 C 276.833 36.496,277.170 36.740,277.582 36.921 C 277.993 37.102,278.331 37.344,278.332 37.458 C 278.333 37.573,278.446 37.667,278.583 37.667 C 278.721 37.667,278.833 37.779,278.833 37.917 C 278.833 38.054,278.946 38.167,279.083 38.167 C 279.236 38.167,279.333 38.322,279.333 38.566 C 279.333 38.785,279.446 39.008,279.583 39.060 C 279.721 39.113,279.833 39.271,279.833 39.411 C 279.833 39.552,279.946 39.667,280.083 39.667 C 280.269 39.667,280.333 39.861,280.333 40.417 C 280.333 40.972,280.398 41.167,280.583 41.167 C 280.790 41.167,280.833 41.473,280.833 42.922 C 280.833 44.328,280.883 44.696,281.083 44.773 C 281.302 44.857,281.333 46.150,281.333 55.018 L 281.333 65.167 285.750 65.167 L 290.167 65.167 290.167 52.354 C 290.167 41.168,290.135 39.514,289.917 39.333 C 289.746 39.192,289.667 38.814,289.667 38.146 C 289.667 37.387,289.611 37.167,289.417 37.167 C 289.231 37.167,289.167 36.972,289.167 36.417 C 289.167 35.861,289.102 35.667,288.917 35.667 C 288.750 35.667,288.667 35.500,288.667 35.167 C 288.667 34.833,288.583 34.667,288.417 34.667 C 288.250 34.667,288.167 34.500,288.167 34.167 C 288.167 33.833,288.083 33.667,287.917 33.667 C 287.750 33.667,287.667 33.500,287.667 33.167 C 287.667 32.833,287.583 32.667,287.417 32.667 C 287.279 32.667,287.167 32.554,287.167 32.417 C 287.167 32.279,287.054 32.167,286.917 32.167 C 286.779 32.167,286.667 32.054,286.667 31.917 C 286.667 31.779,286.554 31.667,286.417 31.667 C 286.279 31.667,286.167 31.554,286.167 31.417 C 286.167 31.279,286.054 31.167,285.917 31.167 C 285.779 31.167,285.667 31.054,285.667 30.917 C 285.667 30.779,285.554 30.667,285.417 30.667 C 285.279 30.667,285.167 30.554,285.167 30.417 C 285.167 30.279,285.054 30.167,284.917 30.167 C 284.779 30.167,284.667 30.054,284.667 29.917 C 284.667 29.750,284.500 29.667,284.167 29.667 C 283.833 29.667,283.667 29.583,283.667 29.417 C 283.667 29.279,283.586 29.167,283.488 29.167 C 283.390 29.167,283.197 29.054,283.060 28.917 C 282.922 28.779,282.552 28.667,282.238 28.667 C 281.841 28.667,281.667 28.590,281.667 28.417 C 281.667 28.231,281.472 28.167,280.917 28.167 C 280.361 28.167,280.167 28.102,280.167 27.917 C 280.167 27.708,279.833 27.667,278.167 27.667 C 276.500 27.667,276.167 27.625,276.167 27.417 C 276.167 27.261,276.009 27.167,275.750 27.167 C 275.491 27.167,275.333 27.261,275.333 27.417 M311.894 27.417 C 311.820 27.609,311.499 27.667,310.494 27.667 C 309.558 27.667,309.120 27.737,308.940 27.917 C 308.800 28.057,308.393 28.167,308.012 28.167 C 307.520 28.167,307.333 28.235,307.333 28.417 C 307.333 28.580,307.170 28.667,306.865 28.667 C 306.608 28.667,306.251 28.777,306.074 28.911 C 305.896 29.046,305.579 29.158,305.370 29.161 C 305.161 29.164,304.946 29.279,304.894 29.417 C 304.841 29.554,304.725 29.667,304.637 29.667 C 304.549 29.667,304.364 29.779,304.226 29.917 C 304.089 30.054,303.832 30.167,303.655 30.167 C 303.478 30.167,303.333 30.279,303.333 30.417 C 303.333 30.554,303.253 30.667,303.155 30.667 C 303.057 30.667,302.864 30.779,302.726 30.917 C 302.589 31.054,302.332 31.167,302.155 31.167 C 301.978 31.167,301.833 31.279,301.833 31.417 C 301.833 31.554,301.721 31.667,301.583 31.667 C 301.446 31.667,301.333 31.779,301.333 31.917 C 301.333 32.054,301.221 32.167,301.083 32.167 C 300.946 32.167,300.833 32.279,300.833 32.417 C 300.833 32.554,300.721 32.667,300.583 32.667 C 300.446 32.667,300.333 32.779,300.333 32.917 C 300.333 33.054,300.221 33.167,300.083 33.167 C 299.946 33.167,299.833 33.279,299.833 33.417 C 299.833 33.554,299.721 33.667,299.583 33.667 C 299.446 33.667,299.333 33.779,299.333 33.917 C 299.333 34.054,299.221 34.167,299.083 34.167 C 298.946 34.167,298.833 34.309,298.833 34.482 C 298.833 34.656,298.721 34.841,298.583 34.894 C 298.446 34.946,298.333 35.142,298.333 35.328 C 298.333 35.518,298.224 35.667,298.083 35.667 C 297.931 35.667,297.833 35.822,297.833 36.066 C 297.833 36.285,297.721 36.508,297.583 36.560 C 297.446 36.613,297.333 36.763,297.333 36.894 C 297.333 37.024,297.221 37.174,297.083 37.227 C 296.946 37.280,296.833 37.505,296.833 37.727 C 296.833 37.949,296.721 38.174,296.583 38.227 C 296.418 38.290,296.333 38.551,296.333 38.995 C 296.333 39.481,296.264 39.667,296.083 39.667 C 295.898 39.667,295.833 39.861,295.833 40.417 C 295.833 40.972,295.769 41.167,295.583 41.167 C 295.382 41.167,295.333 41.424,295.333 42.480 C 295.333 43.443,295.267 43.848,295.083 44.000 C 294.882 44.167,294.833 44.675,294.833 46.586 C 294.833 48.546,294.877 48.981,295.083 49.060 C 295.279 49.135,295.333 49.469,295.333 50.583 C 295.333 51.698,295.388 52.031,295.583 52.106 C 295.753 52.172,295.833 52.438,295.833 52.940 C 295.833 53.441,295.913 53.708,296.083 53.773 C 296.246 53.836,296.333 54.095,296.333 54.518 C 296.333 54.983,296.404 55.167,296.583 55.167 C 296.750 55.167,296.833 55.333,296.833 55.667 C 296.833 56.000,296.917 56.167,297.083 56.167 C 297.250 56.167,297.333 56.333,297.333 56.667 C 297.333 57.000,297.417 57.167,297.583 57.167 C 297.750 57.167,297.833 57.333,297.833 57.667 C 297.833 58.000,297.917 58.167,298.083 58.167 C 298.221 58.167,298.333 58.279,298.333 58.417 C 298.333 58.554,298.446 58.667,298.583 58.667 C 298.736 58.667,298.833 58.822,298.833 59.066 C 298.833 59.285,298.946 59.508,299.083 59.560 C 299.221 59.613,299.333 59.771,299.333 59.911 C 299.333 60.052,299.446 60.167,299.583 60.167 C 299.721 60.167,299.833 60.279,299.833 60.417 C 299.833 60.554,299.946 60.667,300.083 60.667 C 300.221 60.667,300.333 60.779,300.333 60.917 C 300.333 61.054,300.446 61.167,300.583 61.167 C 300.721 61.167,300.833 61.279,300.833 61.417 C 300.833 61.554,300.938 61.667,301.066 61.667 C 301.193 61.667,301.341 61.779,301.394 61.917 C 301.446 62.054,301.644 62.167,301.833 62.167 C 302.022 62.167,302.220 62.279,302.273 62.417 C 302.326 62.554,302.473 62.667,302.601 62.667 C 302.729 62.667,302.833 62.779,302.833 62.917 C 302.833 63.073,302.991 63.167,303.255 63.167 C 303.487 63.167,303.720 63.279,303.773 63.417 C 303.826 63.554,303.973 63.667,304.101 63.667 C 304.229 63.667,304.333 63.740,304.333 63.830 C 304.333 63.920,304.540 64.044,304.792 64.106 C 305.044 64.168,305.294 64.284,305.347 64.365 C 305.400 64.446,305.738 64.558,306.097 64.615 C 306.456 64.671,306.810 64.818,306.883 64.942 C 306.957 65.066,307.294 65.169,307.633 65.172 C 307.972 65.175,308.396 65.287,308.574 65.422 C 308.789 65.585,309.300 65.667,310.101 65.667 C 310.917 65.667,311.328 65.734,311.375 65.875 C 311.490 66.221,315.707 66.270,316.047 65.929 C 316.245 65.731,316.660 65.667,317.738 65.667 C 318.897 65.667,319.167 65.619,319.167 65.417 C 319.167 65.225,319.379 65.167,320.075 65.167 C 320.660 65.167,321.031 65.087,321.117 64.942 C 321.190 64.818,321.549 64.670,321.915 64.613 C 322.281 64.555,322.606 64.431,322.638 64.337 C 322.669 64.243,322.878 64.167,323.102 64.167 C 323.327 64.167,323.554 64.054,323.606 63.917 C 323.659 63.779,323.884 63.667,324.106 63.667 C 324.329 63.667,324.554 63.554,324.606 63.417 C 324.659 63.279,324.799 63.167,324.917 63.167 C 325.035 63.167,325.174 63.054,325.227 62.917 C 325.280 62.779,325.513 62.667,325.745 62.667 C 326.009 62.667,326.167 62.573,326.167 62.417 C 326.167 62.279,326.279 62.167,326.417 62.167 C 326.554 62.167,326.667 62.054,326.667 61.917 C 326.667 61.779,326.742 61.667,326.833 61.667 C 326.925 61.667,327.150 61.517,327.333 61.333 C 327.517 61.150,327.779 61.000,327.917 61.000 C 328.054 61.000,328.167 60.887,328.167 60.750 C 328.167 60.612,328.279 60.500,328.417 60.500 C 328.557 60.500,328.667 60.351,328.667 60.161 C 328.667 59.975,328.779 59.780,328.917 59.727 C 329.054 59.674,329.167 59.527,329.167 59.399 C 329.167 59.271,329.279 59.167,329.417 59.167 C 329.554 59.167,329.667 59.054,329.667 58.917 C 329.667 58.779,329.779 58.667,329.917 58.667 C 330.083 58.667,330.167 58.500,330.167 58.167 C 330.167 57.833,330.250 57.667,330.417 57.667 C 330.583 57.667,330.667 57.500,330.667 57.167 C 330.667 56.833,330.583 56.667,330.417 56.667 C 330.279 56.667,330.167 56.554,330.167 56.417 C 330.167 56.279,330.026 56.167,329.854 56.167 C 329.682 56.167,329.447 56.054,329.333 55.917 C 329.219 55.779,329.023 55.667,328.896 55.667 C 328.770 55.667,328.667 55.554,328.667 55.417 C 328.667 55.250,328.500 55.167,328.167 55.167 C 327.833 55.167,327.667 55.083,327.667 54.917 C 327.667 54.750,327.500 54.667,327.167 54.667 C 326.833 54.667,326.667 54.583,326.667 54.417 C 326.667 54.250,326.500 54.167,326.167 54.167 C 325.833 54.167,325.667 54.083,325.667 53.917 C 325.667 53.779,325.526 53.667,325.354 53.667 C 325.182 53.667,324.947 53.554,324.833 53.417 C 324.366 52.854,322.833 53.279,322.833 53.971 C 322.833 54.079,322.721 54.167,322.583 54.167 C 322.446 54.167,322.333 54.279,322.333 54.417 C 322.333 54.554,322.221 54.667,322.083 54.667 C 321.946 54.667,321.833 54.779,321.833 54.917 C 321.833 55.054,321.721 55.167,321.583 55.167 C 321.446 55.167,321.333 55.279,321.333 55.417 C 321.333 55.583,321.167 55.667,320.833 55.667 C 320.500 55.667,320.333 55.750,320.333 55.917 C 320.333 56.073,320.175 56.167,319.911 56.167 C 319.679 56.167,319.446 56.279,319.394 56.417 C 319.339 56.559,319.090 56.667,318.816 56.667 C 318.498 56.667,318.333 56.752,318.333 56.917 C 318.333 57.100,318.142 57.167,317.615 57.167 C 317.220 57.167,316.751 57.277,316.574 57.411 C 316.095 57.773,312.167 57.778,312.167 57.417 C 312.167 57.234,311.974 57.165,311.458 57.161 C 311.069 57.158,310.604 57.046,310.426 56.911 C 310.249 56.777,309.892 56.667,309.635 56.667 C 309.330 56.667,309.167 56.580,309.167 56.417 C 309.167 56.279,309.054 56.167,308.917 56.167 C 308.779 56.167,308.667 56.054,308.667 55.917 C 308.667 55.750,308.500 55.667,308.167 55.667 C 307.833 55.667,307.667 55.583,307.667 55.417 C 307.667 55.279,307.554 55.167,307.417 55.167 C 307.279 55.167,307.167 55.054,307.167 54.917 C 307.167 54.779,307.054 54.667,306.917 54.667 C 306.779 54.667,306.667 54.554,306.667 54.417 C 306.667 54.279,306.554 54.167,306.417 54.167 C 306.250 54.167,306.167 54.000,306.167 53.667 C 306.167 53.333,306.083 53.167,305.917 53.167 C 305.776 53.167,305.667 53.018,305.667 52.828 C 305.667 52.642,305.554 52.446,305.417 52.394 C 305.262 52.334,305.167 52.081,305.167 51.732 C 305.167 51.341,305.090 51.167,304.917 51.167 C 304.731 51.167,304.667 50.972,304.667 50.417 C 304.667 49.861,304.602 49.667,304.417 49.667 C 304.279 49.667,304.167 49.554,304.167 49.417 C 304.167 49.196,305.806 49.167,317.917 49.167 L 331.667 49.167 331.667 48.661 C 331.667 48.366,331.771 48.116,331.917 48.060 C 332.124 47.981,332.167 47.516,332.167 45.316 C 332.167 43.072,332.128 42.667,331.917 42.667 C 331.715 42.667,331.667 42.407,331.667 41.328 C 331.667 40.292,331.610 39.968,331.417 39.894 C 331.247 39.828,331.167 39.562,331.167 39.060 C 331.167 38.559,331.087 38.292,330.917 38.227 C 330.774 38.172,330.667 37.924,330.667 37.649 C 330.667 37.331,330.581 37.167,330.417 37.167 C 330.250 37.167,330.167 37.000,330.167 36.667 C 330.167 36.333,330.083 36.167,329.917 36.167 C 329.750 36.167,329.667 36.000,329.667 35.667 C 329.667 35.333,329.583 35.167,329.417 35.167 C 329.279 35.167,329.167 35.054,329.167 34.917 C 329.167 34.779,329.054 34.667,328.917 34.667 C 328.760 34.667,328.667 34.509,328.667 34.245 C 328.667 34.013,328.554 33.780,328.417 33.727 C 328.279 33.674,328.167 33.527,328.167 33.399 C 328.167 33.271,328.054 33.167,327.917 33.167 C 327.779 33.167,327.667 33.054,327.667 32.917 C 327.667 32.779,327.554 32.667,327.417 32.667 C 327.279 32.667,327.167 32.554,327.167 32.417 C 327.167 32.279,327.054 32.167,326.917 32.167 C 326.779 32.167,326.667 32.054,326.667 31.917 C 326.667 31.779,326.554 31.667,326.417 31.667 C 326.279 31.667,326.167 31.571,326.167 31.454 C 326.167 31.337,325.830 31.093,325.418 30.912 C 325.007 30.731,324.669 30.490,324.668 30.375 C 324.667 30.260,324.586 30.167,324.488 30.167 C 324.390 30.167,324.197 30.054,324.060 29.917 C 323.922 29.779,323.665 29.667,323.488 29.667 C 323.311 29.667,323.167 29.554,323.167 29.417 C 323.167 29.252,323.002 29.167,322.684 29.167 C 322.410 29.167,322.161 29.059,322.106 28.917 C 322.043 28.752,321.782 28.667,321.339 28.667 C 320.852 28.667,320.667 28.598,320.667 28.417 C 320.667 28.232,320.474 28.167,319.934 28.167 C 319.437 28.167,319.172 28.086,319.106 27.917 C 319.032 27.722,318.701 27.667,317.606 27.667 C 316.512 27.667,316.181 27.612,316.106 27.417 C 316.028 27.214,315.633 27.167,314.000 27.167 C 312.367 27.167,311.972 27.214,311.894 27.417 M353.333 27.417 C 353.333 27.620,353.056 27.667,351.833 27.667 C 350.611 27.667,350.333 27.713,350.333 27.917 C 350.333 28.102,350.139 28.167,349.583 28.167 C 349.028 28.167,348.833 28.231,348.833 28.417 C 348.833 28.602,348.639 28.667,348.083 28.667 C 347.528 28.667,347.333 28.731,347.333 28.917 C 347.333 29.083,347.167 29.167,346.833 29.167 C 346.500 29.167,346.333 29.250,346.333 29.417 C 346.333 29.573,346.175 29.667,345.911 29.667 C 345.679 29.667,345.446 29.779,345.394 29.917 C 345.341 30.054,345.193 30.167,345.066 30.167 C 344.938 30.167,344.833 30.279,344.833 30.417 C 344.833 30.583,344.667 30.667,344.333 30.667 C 344.000 30.667,343.833 30.750,343.833 30.917 C 343.833 31.054,343.721 31.167,343.583 31.167 C 343.446 31.167,343.333 31.279,343.333 31.417 C 343.333 31.554,343.221 31.667,343.083 31.667 C 342.946 31.667,342.833 31.779,342.833 31.917 C 342.833 32.054,342.721 32.167,342.583 32.167 C 342.446 32.167,342.333 32.279,342.333 32.417 C 342.333 32.554,342.221 32.667,342.083 32.667 C 341.946 32.667,341.833 32.779,341.833 32.917 C 341.833 33.054,341.721 33.167,341.583 33.167 C 341.446 33.167,341.333 33.279,341.333 33.417 C 341.333 33.554,341.221 33.667,341.083 33.667 C 340.946 33.667,340.833 33.779,340.833 33.917 C 340.833 34.054,340.721 34.167,340.583 34.167 C 340.446 34.167,340.333 34.279,340.333 34.417 C 340.333 34.554,340.221 34.667,340.083 34.667 C 339.931 34.667,339.833 34.822,339.833 35.066 C 339.833 35.285,339.721 35.508,339.583 35.560 C 339.446 35.613,339.333 35.771,339.333 35.911 C 339.333 36.052,339.221 36.167,339.083 36.167 C 338.917 36.167,338.833 36.333,338.833 36.667 C 338.833 37.000,338.750 37.167,338.583 37.167 C 338.417 37.167,338.333 37.333,338.333 37.667 C 338.333 38.000,338.250 38.167,338.083 38.167 C 337.919 38.167,337.833 38.331,337.833 38.649 C 337.833 38.924,337.726 39.172,337.583 39.227 C 337.420 39.290,337.333 39.549,337.333 39.977 C 337.333 40.405,337.247 40.664,337.083 40.727 C 336.894 40.800,336.833 41.107,336.833 41.995 C 336.833 42.925,336.782 43.167,336.583 43.167 C 336.369 43.167,336.333 43.655,336.333 46.566 C 336.333 49.433,336.372 49.979,336.583 50.060 C 336.775 50.134,336.833 50.449,336.833 51.411 C 336.833 52.416,336.883 52.667,337.083 52.667 C 337.269 52.667,337.333 52.861,337.333 53.417 C 337.333 53.972,337.398 54.167,337.583 54.167 C 337.763 54.167,337.833 54.350,337.833 54.816 C 337.833 55.238,337.920 55.498,338.083 55.560 C 338.229 55.616,338.333 55.866,338.333 56.161 C 338.333 56.499,338.416 56.667,338.583 56.667 C 338.736 56.667,338.833 56.822,338.833 57.066 C 338.833 57.285,338.946 57.508,339.083 57.560 C 339.221 57.613,339.333 57.771,339.333 57.911 C 339.333 58.052,339.446 58.167,339.583 58.167 C 339.736 58.167,339.833 58.322,339.833 58.566 C 339.833 58.785,339.946 59.008,340.083 59.060 C 340.221 59.113,340.333 59.271,340.333 59.411 C 340.333 59.552,340.446 59.667,340.583 59.667 C 340.721 59.667,340.833 59.779,340.833 59.917 C 340.833 60.054,340.946 60.167,341.083 60.167 C 341.221 60.167,341.333 60.279,341.333 60.417 C 341.333 60.554,341.446 60.667,341.583 60.667 C 341.721 60.667,341.833 60.779,341.833 60.917 C 341.833 61.054,341.946 61.167,342.083 61.167 C 342.221 61.167,342.333 61.279,342.333 61.417 C 342.333 61.554,342.446 61.667,342.583 61.667 C 342.721 61.667,342.833 61.779,342.833 61.917 C 342.833 62.054,342.914 62.167,343.012 62.167 C 343.110 62.167,343.303 62.279,343.440 62.417 C 343.578 62.554,343.835 62.667,344.012 62.667 C 344.189 62.667,344.333 62.779,344.333 62.917 C 344.333 63.054,344.414 63.167,344.512 63.167 C 344.610 63.167,344.803 63.279,344.940 63.417 C 345.078 63.554,345.327 63.667,345.494 63.667 C 345.661 63.667,345.841 63.779,345.894 63.917 C 345.946 64.054,346.171 64.167,346.394 64.167 C 346.616 64.167,346.841 64.279,346.894 64.417 C 346.957 64.582,347.218 64.667,347.661 64.667 C 348.148 64.667,348.333 64.736,348.333 64.917 C 348.333 65.098,348.520 65.167,349.012 65.167 C 349.393 65.167,349.800 65.276,349.940 65.417 C 350.118 65.594,350.552 65.667,351.440 65.667 C 352.356 65.667,352.761 65.737,352.953 65.929 C 353.293 66.270,357.510 66.221,357.625 65.875 C 357.673 65.730,358.121 65.667,359.089 65.667 C 360.091 65.667,360.521 65.603,360.617 65.439 C 360.692 65.311,361.147 65.175,361.660 65.127 C 362.160 65.080,362.597 64.958,362.632 64.854 C 362.666 64.751,362.913 64.667,363.181 64.667 C 363.481 64.667,363.667 64.579,363.667 64.439 C 363.667 64.297,363.929 64.175,364.357 64.118 C 364.737 64.067,365.093 63.955,365.149 63.868 C 365.205 63.782,365.419 63.659,365.625 63.595 C 365.831 63.530,366.000 63.408,366.000 63.322 C 366.000 63.237,366.150 63.167,366.333 63.167 C 366.519 63.167,366.667 63.056,366.667 62.917 C 366.667 62.779,366.811 62.667,366.988 62.667 C 367.165 62.667,367.422 62.554,367.560 62.417 C 367.697 62.279,367.890 62.167,367.988 62.167 C 368.086 62.167,368.167 62.054,368.167 61.917 C 368.167 61.779,368.279 61.667,368.417 61.667 C 368.554 61.667,368.667 61.554,368.667 61.417 C 368.667 61.279,368.779 61.167,368.917 61.167 C 369.054 61.167,369.167 61.054,369.167 60.917 C 369.167 60.779,369.279 60.667,369.417 60.667 C 369.554 60.667,369.667 60.554,369.667 60.417 C 369.667 60.279,369.779 60.167,369.917 60.167 C 370.054 60.167,370.167 60.054,370.167 59.917 C 370.167 59.779,370.279 59.667,370.417 59.667 C 370.554 59.667,370.667 59.554,370.667 59.417 C 370.667 59.279,370.779 59.167,370.917 59.167 C 371.073 59.167,371.167 59.009,371.167 58.745 C 371.167 58.513,371.279 58.280,371.417 58.227 C 371.554 58.174,371.667 57.997,371.667 57.833 C 371.667 57.670,371.779 57.492,371.917 57.440 C 372.054 57.387,372.167 57.237,372.167 57.106 C 372.167 56.976,372.054 56.826,371.917 56.773 C 371.779 56.720,371.667 56.562,371.667 56.422 C 371.667 56.249,371.505 56.167,371.167 56.167 C 370.833 56.167,370.667 56.083,370.667 55.917 C 370.667 55.750,370.500 55.667,370.167 55.667 C 369.833 55.667,369.667 55.583,369.667 55.417 C 369.667 55.279,369.562 55.167,369.434 55.167 C 369.307 55.167,369.159 55.054,369.106 54.917 C 369.054 54.779,368.821 54.667,368.589 54.667 C 368.325 54.667,368.167 54.573,368.167 54.417 C 368.167 54.250,368.000 54.167,367.667 54.167 C 367.333 54.167,367.167 54.083,367.167 53.917 C 367.167 53.750,367.000 53.667,366.667 53.667 C 366.333 53.667,366.167 53.583,366.167 53.417 C 366.167 53.225,365.954 53.167,365.250 53.167 C 364.464 53.167,364.333 53.211,364.333 53.480 C 364.333 53.652,364.221 53.886,364.083 54.000 C 363.946 54.114,363.833 54.311,363.833 54.437 C 363.833 54.563,363.721 54.667,363.583 54.667 C 363.446 54.667,363.333 54.779,363.333 54.917 C 363.333 55.083,363.167 55.167,362.833 55.167 C 362.500 55.167,362.333 55.250,362.333 55.417 C 362.333 55.554,362.221 55.667,362.083 55.667 C 361.946 55.667,361.833 55.779,361.833 55.917 C 361.833 56.083,361.667 56.167,361.333 56.167 C 361.000 56.167,360.833 56.250,360.833 56.417 C 360.833 56.583,360.667 56.667,360.333 56.667 C 360.000 56.667,359.833 56.750,359.833 56.917 C 359.833 57.109,359.620 57.167,358.911 57.167 C 358.246 57.167,357.963 57.236,357.894 57.417 C 357.816 57.620,357.422 57.667,355.804 57.667 C 354.253 57.667,353.754 57.611,353.560 57.417 C 353.405 57.262,352.996 57.167,352.488 57.167 C 351.869 57.167,351.667 57.105,351.667 56.917 C 351.667 56.750,351.500 56.667,351.167 56.667 C 350.833 56.667,350.667 56.583,350.667 56.417 C 350.667 56.250,350.500 56.167,350.167 56.167 C 349.833 56.167,349.667 56.083,349.667 55.917 C 349.667 55.779,349.554 55.667,349.417 55.667 C 349.279 55.667,349.167 55.554,349.167 55.417 C 349.167 55.279,349.054 55.167,348.917 55.167 C 348.779 55.167,348.667 55.054,348.667 54.917 C 348.667 54.779,348.554 54.667,348.417 54.667 C 348.279 54.667,348.167 54.554,348.167 54.417 C 348.167 54.279,348.054 54.167,347.917 54.167 C 347.779 54.167,347.667 54.063,347.667 53.937 C 347.667 53.811,347.554 53.614,347.417 53.500 C 347.279 53.386,347.167 53.152,347.167 52.980 C 347.167 52.807,347.054 52.667,346.917 52.667 C 346.750 52.667,346.667 52.500,346.667 52.167 C 346.667 51.833,346.583 51.667,346.417 51.667 C 346.231 51.667,346.167 51.472,346.167 50.917 C 346.167 50.361,346.102 50.167,345.917 50.167 C 345.750 50.167,345.667 50.000,345.667 49.667 L 345.667 49.167 359.417 49.167 L 373.167 49.167 373.167 47.393 C 373.167 45.902,373.213 45.584,373.458 45.393 C 373.736 45.177,373.736 45.156,373.458 44.940 C 373.208 44.745,373.167 44.415,373.167 42.601 C 373.167 40.878,373.121 40.472,372.917 40.394 C 372.742 40.326,372.667 40.053,372.667 39.482 C 372.667 38.868,372.605 38.667,372.417 38.667 C 372.237 38.667,372.167 38.483,372.167 38.018 C 372.167 37.595,372.080 37.336,371.917 37.273 C 371.779 37.220,371.667 36.985,371.667 36.750 C 371.667 36.515,371.554 36.280,371.417 36.227 C 371.279 36.174,371.167 36.027,371.167 35.899 C 371.167 35.771,371.054 35.667,370.917 35.667 C 370.750 35.667,370.667 35.500,370.667 35.167 C 370.667 34.833,370.583 34.667,370.417 34.667 C 370.279 34.667,370.167 34.554,370.167 34.417 C 370.167 34.279,370.054 34.167,369.917 34.167 C 369.760 34.167,369.667 34.009,369.667 33.745 C 369.667 33.513,369.554 33.280,369.417 33.227 C 369.279 33.174,369.167 33.027,369.167 32.899 C 369.167 32.771,369.054 32.667,368.917 32.667 C 368.779 32.667,368.667 32.554,368.667 32.417 C 368.667 32.279,368.596 32.167,368.509 32.167 C 368.422 32.167,368.146 31.977,367.897 31.746 C 367.647 31.515,367.268 31.281,367.055 31.228 C 366.841 31.174,366.667 31.026,366.667 30.899 C 366.667 30.771,366.554 30.667,366.417 30.667 C 366.279 30.667,366.167 30.554,366.167 30.417 C 366.167 30.250,366.000 30.167,365.667 30.167 C 365.333 30.167,365.167 30.083,365.167 29.917 C 365.167 29.779,365.054 29.667,364.917 29.667 C 364.779 29.667,364.667 29.601,364.667 29.520 C 364.667 29.439,364.329 29.288,363.917 29.184 C 363.504 29.080,363.167 28.921,363.167 28.831 C 363.167 28.741,362.942 28.667,362.667 28.667 C 362.333 28.667,362.167 28.583,362.167 28.417 C 362.167 28.234,361.974 28.165,361.458 28.161 C 361.069 28.158,360.604 28.046,360.426 27.911 C 360.215 27.751,359.696 27.665,358.926 27.661 C 358.157 27.658,357.638 27.571,357.426 27.411 C 356.951 27.051,353.333 27.056,353.333 27.417 M394.333 27.917 C 394.333 28.111,394.111 28.167,393.333 28.167 C 392.556 28.167,392.333 28.222,392.333 28.417 C 392.333 28.583,392.167 28.667,391.833 28.667 C 391.500 28.667,391.333 28.750,391.333 28.917 C 391.333 29.083,391.167 29.167,390.833 29.167 C 390.500 29.167,390.333 29.250,390.333 29.417 C 390.333 29.573,390.175 29.667,389.911 29.667 C 389.679 29.667,389.446 29.779,389.394 29.917 C 389.341 30.054,389.193 30.167,389.066 30.167 C 388.938 30.167,388.833 30.279,388.833 30.417 C 388.833 30.554,388.721 30.667,388.583 30.667 C 388.446 30.667,388.333 30.779,388.333 30.917 C 388.333 31.054,388.221 31.167,388.083 31.167 C 387.946 31.167,387.833 31.279,387.833 31.417 C 387.833 31.554,387.726 31.667,387.594 31.667 C 387.462 31.667,387.325 31.870,387.286 32.125 C 387.248 32.377,387.205 31.590,387.192 30.375 L 387.167 28.167 382.750 28.167 L 378.333 28.167 378.333 46.667 L 378.333 65.167 382.750 65.167 L 387.167 65.167 387.167 54.911 C 387.167 45.949,387.198 44.644,387.417 44.560 C 387.605 44.488,387.667 44.183,387.667 43.316 C 387.667 42.405,387.719 42.167,387.917 42.167 C 388.090 42.167,388.167 41.993,388.167 41.601 C 388.167 41.252,388.262 40.999,388.417 40.940 C 388.554 40.887,388.667 40.691,388.667 40.505 C 388.667 40.315,388.776 40.167,388.917 40.167 C 389.054 40.167,389.167 40.025,389.167 39.851 C 389.167 39.678,389.279 39.492,389.417 39.440 C 389.554 39.387,389.667 39.191,389.667 39.005 C 389.667 38.785,389.776 38.667,389.980 38.667 C 390.152 38.667,390.386 38.554,390.500 38.417 C 390.614 38.279,390.811 38.167,390.937 38.167 C 391.063 38.167,391.167 38.054,391.167 37.917 C 391.167 37.760,391.325 37.667,391.589 37.667 C 391.821 37.667,392.054 37.554,392.106 37.417 C 392.161 37.274,392.410 37.167,392.684 37.167 C 393.002 37.167,393.167 37.081,393.167 36.917 C 393.167 36.703,393.657 36.667,396.583 36.667 L 400.000 36.667 400.000 32.417 L 400.000 28.167 399.351 28.167 C 398.928 28.167,398.669 28.080,398.606 27.917 C 398.528 27.713,398.125 27.667,396.422 27.667 C 394.677 27.667,394.333 27.708,394.333 27.917 M174.833 29.167 C 174.833 29.944,174.889 30.167,175.083 30.167 C 175.269 30.167,175.333 30.361,175.333 30.917 C 175.333 31.472,175.398 31.667,175.583 31.667 C 175.764 31.667,175.833 31.852,175.833 32.339 C 175.833 32.782,175.918 33.043,176.083 33.106 C 176.226 33.161,176.333 33.410,176.333 33.684 C 176.333 34.002,176.419 34.167,176.583 34.167 C 176.769 34.167,176.833 34.361,176.833 34.917 C 176.833 35.472,176.898 35.667,177.083 35.667 C 177.264 35.667,177.333 35.852,177.333 36.339 C 177.333 36.782,177.418 37.043,177.583 37.106 C 177.722 37.160,177.833 37.407,177.833 37.664 C 177.833 37.918,177.946 38.219,178.083 38.333 C 178.221 38.447,178.333 38.794,178.333 39.104 C 178.333 39.493,178.410 39.667,178.583 39.667 C 178.769 39.667,178.833 39.861,178.833 40.417 C 178.833 40.972,178.898 41.167,179.083 41.167 C 179.258 41.167,179.333 41.343,179.333 41.755 C 179.333 42.125,179.426 42.380,179.583 42.440 C 179.738 42.499,179.833 42.752,179.833 43.101 C 179.833 43.493,179.910 43.667,180.083 43.667 C 180.269 43.667,180.333 43.861,180.333 44.417 C 180.333 44.972,180.398 45.167,180.583 45.167 C 180.763 45.167,180.833 45.350,180.833 45.816 C 180.833 46.238,180.920 46.498,181.083 46.560 C 181.229 46.616,181.333 46.866,181.333 47.161 C 181.333 47.499,181.416 47.667,181.583 47.667 C 181.769 47.667,181.833 47.861,181.833 48.417 C 181.833 48.972,181.898 49.167,182.083 49.167 C 182.264 49.167,182.333 49.352,182.333 49.839 C 182.333 50.282,182.418 50.543,182.583 50.606 C 182.727 50.661,182.833 50.910,182.833 51.190 C 182.833 51.469,182.940 51.718,183.083 51.773 C 183.246 51.836,183.333 52.095,183.333 52.518 C 183.333 52.983,183.404 53.167,183.583 53.167 C 183.764 53.167,183.833 53.352,183.833 53.839 C 183.833 54.282,183.918 54.543,184.083 54.606 C 184.238 54.666,184.333 54.919,184.333 55.273 C 184.333 55.627,184.428 55.880,184.583 55.940 C 184.738 55.999,184.833 56.252,184.833 56.601 C 184.833 56.993,184.910 57.167,185.083 57.167 C 185.269 57.167,185.333 57.361,185.333 57.917 C 185.333 58.472,185.398 58.667,185.583 58.667 C 185.764 58.667,185.833 58.852,185.833 59.333 C 185.833 59.815,185.903 60.000,186.083 60.000 C 186.258 60.000,186.333 60.176,186.333 60.583 C 186.333 60.991,186.409 61.167,186.583 61.167 C 186.769 61.167,186.833 61.361,186.833 61.917 C 186.833 62.472,186.898 62.667,187.083 62.667 C 187.263 62.667,187.333 62.850,187.333 63.316 C 187.333 63.738,187.420 63.998,187.583 64.060 C 187.726 64.115,187.833 64.364,187.833 64.641 C 187.833 64.908,187.721 65.219,187.583 65.333 C 187.446 65.447,187.333 65.794,187.333 66.104 C 187.333 66.493,187.256 66.667,187.083 66.667 C 186.917 66.667,186.833 66.833,186.833 67.167 C 186.833 67.500,186.750 67.667,186.583 67.667 C 186.419 67.667,186.333 67.831,186.333 68.149 C 186.333 68.424,186.226 68.672,186.083 68.727 C 185.918 68.790,185.833 69.051,185.833 69.495 C 185.833 69.981,185.764 70.167,185.583 70.167 C 185.417 70.167,185.333 70.333,185.333 70.667 C 185.333 71.000,185.250 71.167,185.083 71.167 C 184.917 71.167,184.833 71.333,184.833 71.667 C 184.833 72.000,184.750 72.167,184.583 72.167 C 184.410 72.167,184.333 72.340,184.333 72.730 C 184.333 73.039,184.221 73.386,184.083 73.500 C 183.946 73.614,183.833 73.923,183.833 74.187 C 183.833 74.502,183.748 74.667,183.583 74.667 C 183.417 74.667,183.333 74.833,183.333 75.167 C 183.333 75.500,183.250 75.667,183.083 75.667 C 182.917 75.667,182.833 75.833,182.833 76.167 C 182.833 76.500,182.750 76.667,182.583 76.667 C 182.409 76.667,182.333 76.843,182.333 77.250 L 182.333 77.833 187.250 77.833 C 192.056 77.833,192.167 77.826,192.167 77.500 C 192.167 77.315,192.278 77.167,192.417 77.167 C 192.584 77.167,192.667 76.999,192.667 76.661 C 192.667 76.366,192.771 76.116,192.917 76.060 C 193.056 76.007,193.167 75.759,193.167 75.500 C 193.167 75.241,193.277 74.993,193.417 74.940 C 193.572 74.880,193.667 74.627,193.667 74.273 C 193.667 73.919,193.762 73.666,193.917 73.606 C 194.063 73.550,194.167 73.301,194.167 73.005 C 194.167 72.667,194.249 72.500,194.417 72.500 C 194.597 72.500,194.667 72.315,194.667 71.833 C 194.667 71.352,194.736 71.167,194.917 71.167 C 195.084 71.167,195.167 70.999,195.167 70.661 C 195.167 70.366,195.271 70.116,195.417 70.060 C 195.556 70.007,195.667 69.759,195.667 69.500 C 195.667 69.241,195.777 68.993,195.917 68.940 C 196.074 68.880,196.167 68.625,196.167 68.255 C 196.167 67.843,196.242 67.667,196.417 67.667 C 196.584 67.667,196.667 67.499,196.667 67.161 C 196.667 66.866,196.771 66.616,196.917 66.560 C 197.080 66.498,197.167 66.238,197.167 65.816 C 197.167 65.350,197.237 65.167,197.417 65.167 C 197.581 65.167,197.667 65.002,197.667 64.684 C 197.667 64.410,197.774 64.161,197.917 64.106 C 198.063 64.050,198.167 63.801,198.167 63.505 C 198.167 63.167,198.249 63.000,198.417 63.000 C 198.597 63.000,198.667 62.815,198.667 62.333 C 198.667 61.852,198.736 61.667,198.917 61.667 C 199.081 61.667,199.167 61.502,199.167 61.184 C 199.167 60.910,199.274 60.661,199.417 60.606 C 199.582 60.543,199.667 60.282,199.667 59.839 C 199.667 59.352,199.736 59.167,199.917 59.167 C 200.083 59.167,200.167 59.000,200.167 58.667 C 200.167 58.333,200.250 58.167,200.417 58.167 C 200.591 58.167,200.667 57.991,200.667 57.583 C 200.667 57.176,200.742 57.000,200.917 57.000 C 201.097 57.000,201.167 56.815,201.167 56.333 C 201.167 55.852,201.236 55.667,201.417 55.667 C 201.581 55.667,201.667 55.502,201.667 55.184 C 201.667 54.910,201.774 54.661,201.917 54.606 C 202.082 54.543,202.167 54.282,202.167 53.839 C 202.167 53.352,202.236 53.167,202.417 53.167 C 202.583 53.167,202.667 53.000,202.667 52.667 C 202.667 52.333,202.750 52.167,202.917 52.167 C 203.084 52.167,203.167 51.999,203.167 51.661 C 203.167 51.366,203.271 51.116,203.417 51.060 C 203.580 50.998,203.667 50.738,203.667 50.316 C 203.667 49.850,203.737 49.667,203.917 49.667 C 204.083 49.667,204.167 49.500,204.167 49.167 C 204.167 48.833,204.250 48.667,204.417 48.667 C 204.596 48.667,204.667 48.483,204.667 48.018 C 204.667 47.595,204.754 47.336,204.917 47.273 C 205.063 47.217,205.167 46.967,205.167 46.672 C 205.167 46.334,205.249 46.167,205.417 46.167 C 205.584 46.167,205.667 45.999,205.667 45.661 C 205.667 45.366,205.771 45.116,205.917 45.060 C 206.080 44.998,206.167 44.738,206.167 44.316 C 206.167 43.850,206.237 43.667,206.417 43.667 C 206.583 43.667,206.667 43.500,206.667 43.167 C 206.667 42.833,206.750 42.667,206.917 42.667 C 207.096 42.667,207.167 42.483,207.167 42.018 C 207.167 41.595,207.254 41.336,207.417 41.273 C 207.563 41.217,207.667 40.967,207.667 40.672 C 207.667 40.334,207.749 40.167,207.917 40.167 C 208.081 40.167,208.167 40.002,208.167 39.684 C 208.167 39.410,208.274 39.161,208.417 39.106 C 208.582 39.043,208.667 38.782,208.667 38.339 C 208.667 37.852,208.736 37.667,208.917 37.667 C 209.083 37.667,209.167 37.500,209.167 37.167 C 209.167 36.833,209.250 36.667,209.417 36.667 C 209.590 36.667,209.667 36.493,209.667 36.104 C 209.667 35.794,209.779 35.447,209.917 35.333 C 210.054 35.219,210.167 34.910,210.167 34.646 C 210.167 34.331,210.252 34.167,210.417 34.167 C 210.581 34.167,210.667 34.002,210.667 33.684 C 210.667 33.410,210.774 33.161,210.917 33.106 C 211.082 33.043,211.167 32.782,211.167 32.339 C 211.167 31.852,211.236 31.667,211.417 31.667 C 211.583 31.667,211.667 31.500,211.667 31.167 C 211.667 30.833,211.750 30.667,211.917 30.667 C 212.090 30.667,212.167 30.493,212.167 30.104 C 212.167 29.794,212.279 29.447,212.417 29.333 C 212.554 29.219,212.667 28.910,212.667 28.646 L 212.667 28.167 207.750 28.167 L 202.833 28.167 202.833 28.667 C 202.833 29.000,202.750 29.167,202.583 29.167 C 202.417 29.167,202.333 29.333,202.333 29.667 C 202.333 30.000,202.250 30.167,202.083 30.167 C 201.898 30.167,201.833 30.361,201.833 30.917 C 201.833 31.472,201.769 31.667,201.583 31.667 C 201.419 31.667,201.333 31.831,201.333 32.149 C 201.333 32.424,201.226 32.672,201.083 32.727 C 200.918 32.790,200.833 33.051,200.833 33.495 C 200.833 33.981,200.764 34.167,200.583 34.167 C 200.410 34.167,200.333 34.341,200.333 34.732 C 200.333 35.081,200.238 35.334,200.083 35.394 C 199.926 35.454,199.833 35.709,199.833 36.078 C 199.833 36.490,199.758 36.667,199.583 36.667 C 199.398 36.667,199.333 36.861,199.333 37.417 C 199.333 37.972,199.269 38.167,199.083 38.167 C 198.919 38.167,198.833 38.331,198.833 38.649 C 198.833 38.924,198.726 39.172,198.583 39.227 C 198.418 39.290,198.333 39.551,198.333 39.995 C 198.333 40.481,198.264 40.667,198.083 40.667 C 197.916 40.667,197.833 40.834,197.833 41.172 C 197.833 41.467,197.729 41.717,197.583 41.773 C 197.420 41.836,197.333 42.095,197.333 42.518 C 197.333 42.983,197.263 43.167,197.083 43.167 C 196.910 43.167,196.833 43.340,196.833 43.730 C 196.833 44.039,196.721 44.386,196.583 44.500 C 196.446 44.614,196.333 44.923,196.333 45.187 C 196.333 45.502,196.248 45.667,196.083 45.667 C 195.898 45.667,195.833 45.861,195.833 46.417 C 195.833 46.972,195.769 47.167,195.583 47.167 C 195.419 47.167,195.333 47.331,195.333 47.649 C 195.333 47.924,195.226 48.172,195.083 48.227 C 194.918 48.290,194.833 48.551,194.833 48.995 C 194.833 49.481,194.764 49.667,194.583 49.667 C 194.410 49.667,194.333 49.841,194.333 50.232 C 194.333 50.581,194.238 50.834,194.083 50.894 C 193.926 50.954,193.833 51.209,193.833 51.578 C 193.833 51.979,193.757 52.167,193.594 52.167 C 193.449 52.167,193.328 52.380,193.287 52.708 C 193.236 53.125,193.214 53.067,193.193 52.458 C 193.174 51.878,193.100 51.667,192.917 51.667 C 192.731 51.667,192.667 51.472,192.667 50.917 C 192.667 50.361,192.602 50.167,192.417 50.167 C 192.231 50.167,192.167 49.972,192.167 49.417 C 192.167 48.861,192.102 48.667,191.917 48.667 C 191.731 48.667,191.667 48.472,191.667 47.917 C 191.667 47.361,191.602 47.167,191.417 47.167 C 191.236 47.167,191.167 46.981,191.167 46.495 C 191.167 46.051,191.082 45.790,190.917 45.727 C 190.755 45.665,190.667 45.407,190.667 45.000 C 190.667 44.593,190.578 44.335,190.417 44.273 C 190.274 44.218,190.167 43.970,190.167 43.692 C 190.167 43.426,190.054 43.114,189.917 43.000 C 189.779 42.886,189.667 42.539,189.667 42.230 C 189.667 41.840,189.590 41.667,189.417 41.667 C 189.231 41.667,189.167 41.472,189.167 40.917 C 189.167 40.361,189.102 40.167,188.917 40.167 C 188.731 40.167,188.667 39.972,188.667 39.417 C 188.667 38.861,188.602 38.667,188.417 38.667 C 188.231 38.667,188.167 38.472,188.167 37.917 C 188.167 37.361,188.102 37.167,187.917 37.167 C 187.731 37.167,187.667 36.972,187.667 36.417 C 187.667 35.861,187.602 35.667,187.417 35.667 C 187.231 35.667,187.167 35.472,187.167 34.917 C 187.167 34.361,187.102 34.167,186.917 34.167 C 186.736 34.167,186.667 33.981,186.667 33.495 C 186.667 33.051,186.582 32.790,186.417 32.727 C 186.255 32.665,186.167 32.407,186.167 32.000 C 186.167 31.593,186.078 31.335,185.917 31.273 C 185.759 31.213,185.667 30.957,185.667 30.583 C 185.667 30.209,185.574 29.954,185.417 29.894 C 185.262 29.834,185.167 29.581,185.167 29.232 C 185.167 28.841,185.090 28.667,184.917 28.667 C 184.779 28.667,184.667 28.554,184.667 28.417 C 184.667 28.200,184.009 28.167,179.750 28.167 L 174.833 28.167 174.833 29.167 M314.394 35.417 C 314.465 35.604,314.766 35.667,315.590 35.667 C 316.346 35.667,316.769 35.745,316.940 35.917 C 317.078 36.054,317.448 36.167,317.762 36.167 C 318.159 36.167,318.333 36.243,318.333 36.417 C 318.333 36.554,318.414 36.667,318.512 36.667 C 318.610 36.667,318.803 36.779,318.940 36.917 C 319.078 37.054,319.335 37.167,319.512 37.167 C 319.689 37.167,319.833 37.279,319.833 37.417 C 319.833 37.554,319.946 37.667,320.083 37.667 C 320.221 37.667,320.333 37.779,320.333 37.917 C 320.333 38.054,320.446 38.167,320.583 38.167 C 320.721 38.167,320.833 38.279,320.833 38.417 C 320.833 38.554,320.946 38.667,321.083 38.667 C 321.250 38.667,321.333 38.833,321.333 39.167 C 321.333 39.500,321.417 39.667,321.583 39.667 C 321.738 39.667,321.833 39.823,321.833 40.075 C 321.833 40.300,321.937 40.543,322.064 40.617 C 322.190 40.690,322.324 41.069,322.360 41.458 L 322.425 42.167 313.796 42.167 L 305.167 42.167 305.167 41.661 C 305.167 41.366,305.271 41.116,305.417 41.060 C 305.556 41.007,305.667 40.759,305.667 40.500 C 305.667 40.241,305.777 39.993,305.917 39.940 C 306.054 39.887,306.167 39.691,306.167 39.505 C 306.167 39.315,306.276 39.167,306.417 39.167 C 306.554 39.167,306.667 39.092,306.667 39.000 C 306.667 38.784,307.284 38.167,307.500 38.167 C 307.592 38.167,307.667 38.054,307.667 37.917 C 307.667 37.779,307.779 37.667,307.917 37.667 C 308.054 37.667,308.167 37.554,308.167 37.417 C 308.167 37.279,308.279 37.167,308.417 37.167 C 308.554 37.167,308.667 37.054,308.667 36.917 C 308.667 36.750,308.833 36.667,309.167 36.667 C 309.500 36.667,309.667 36.583,309.667 36.417 C 309.667 36.250,309.833 36.167,310.167 36.167 C 310.500 36.167,310.667 36.083,310.667 35.917 C 310.667 35.717,310.917 35.667,311.917 35.667 C 312.917 35.667,313.167 35.617,313.167 35.417 C 313.167 35.244,313.341 35.167,313.732 35.167 C 314.081 35.167,314.334 35.262,314.394 35.417 M355.833 35.417 C 355.833 35.617,356.083 35.667,357.083 35.667 C 358.083 35.667,358.333 35.717,358.333 35.917 C 358.333 36.083,358.500 36.167,358.833 36.167 C 359.167 36.167,359.333 36.250,359.333 36.417 C 359.333 36.583,359.500 36.667,359.833 36.667 C 360.167 36.667,360.333 36.750,360.333 36.917 C 360.333 37.054,360.414 37.167,360.512 37.167 C 360.610 37.167,360.803 37.279,360.940 37.417 C 361.078 37.554,361.335 37.667,361.512 37.667 C 361.689 37.667,361.833 37.770,361.833 37.896 C 361.833 38.023,361.946 38.219,362.083 38.333 C 362.221 38.447,362.333 38.682,362.333 38.854 C 362.333 39.026,362.446 39.167,362.583 39.167 C 362.721 39.167,362.833 39.279,362.833 39.417 C 362.833 39.554,362.946 39.667,363.083 39.667 C 363.263 39.667,363.333 39.850,363.333 40.316 C 363.333 40.738,363.420 40.998,363.583 41.060 C 363.729 41.116,363.833 41.366,363.833 41.661 L 363.833 42.167 355.000 42.167 C 347.259 42.167,346.167 42.136,346.167 41.917 C 346.167 41.779,346.279 41.667,346.417 41.667 C 346.583 41.667,346.667 41.500,346.667 41.167 C 346.667 40.833,346.750 40.667,346.917 40.667 C 347.083 40.667,347.167 40.500,347.167 40.167 C 347.167 39.833,347.250 39.667,347.417 39.667 C 347.554 39.667,347.667 39.525,347.667 39.351 C 347.667 39.178,347.779 38.992,347.917 38.940 C 348.054 38.887,348.167 38.691,348.167 38.505 C 348.167 38.315,348.276 38.167,348.417 38.167 C 348.554 38.167,348.667 38.054,348.667 37.917 C 348.667 37.779,348.779 37.667,348.917 37.667 C 349.054 37.667,349.167 37.554,349.167 37.417 C 349.167 37.250,349.333 37.167,349.667 37.167 C 350.000 37.167,350.167 37.083,350.167 36.917 C 350.167 36.779,350.270 36.667,350.396 36.667 C 350.523 36.667,350.719 36.554,350.833 36.417 C 350.947 36.279,351.294 36.167,351.604 36.167 C 351.993 36.167,352.167 36.090,352.167 35.917 C 352.167 35.718,352.408 35.667,353.339 35.667 C 354.227 35.667,354.534 35.606,354.606 35.417 C 354.666 35.262,354.919 35.167,355.268 35.167 C 355.659 35.167,355.833 35.244,355.833 35.417 M153.333 35.917 C 153.333 36.102,153.528 36.167,154.083 36.167 C 154.639 36.167,154.833 36.231,154.833 36.417 C 154.833 36.574,154.992 36.667,155.262 36.667 C 155.498 36.667,155.803 36.779,155.940 36.917 C 156.078 37.054,156.335 37.167,156.512 37.167 C 156.689 37.167,156.833 37.279,156.833 37.417 C 156.833 37.554,156.914 37.667,157.012 37.667 C 157.110 37.667,157.303 37.779,157.440 37.917 C 157.578 38.054,157.835 38.167,158.012 38.167 C 158.189 38.167,158.333 38.279,158.333 38.417 C 158.333 38.554,158.446 38.667,158.583 38.667 C 158.724 38.667,158.833 38.815,158.833 39.005 C 158.833 39.191,158.946 39.387,159.083 39.440 C 159.221 39.492,159.333 39.678,159.333 39.851 C 159.333 40.025,159.446 40.167,159.583 40.167 C 159.724 40.167,159.833 40.315,159.833 40.505 C 159.833 40.691,159.946 40.887,160.083 40.940 C 160.221 40.992,160.333 41.217,160.333 41.440 C 160.333 41.662,160.446 41.887,160.583 41.940 C 160.738 41.999,160.833 42.252,160.833 42.601 C 160.833 42.993,160.910 43.167,161.083 43.167 C 161.288 43.167,161.333 43.453,161.333 44.742 C 161.333 46.061,161.380 46.343,161.622 46.478 C 161.895 46.631,161.895 46.656,161.622 46.958 C 161.406 47.196,161.333 47.572,161.333 48.454 C 161.333 49.346,161.273 49.654,161.083 49.727 C 160.918 49.790,160.833 50.051,160.833 50.495 C 160.833 50.981,160.764 51.167,160.583 51.167 C 160.417 51.167,160.333 51.333,160.333 51.667 C 160.333 52.000,160.250 52.167,160.083 52.167 C 159.946 52.167,159.833 52.271,159.833 52.399 C 159.833 52.527,159.721 52.674,159.583 52.727 C 159.446 52.780,159.333 53.013,159.333 53.245 C 159.333 53.509,159.240 53.667,159.083 53.667 C 158.946 53.667,158.833 53.779,158.833 53.917 C 158.833 54.054,158.721 54.167,158.583 54.167 C 158.446 54.167,158.333 54.279,158.333 54.417 C 158.333 54.554,158.221 54.667,158.083 54.667 C 157.946 54.667,157.833 54.779,157.833 54.917 C 157.833 55.054,157.721 55.167,157.583 55.167 C 157.446 55.167,157.333 55.279,157.333 55.417 C 157.333 55.583,157.167 55.667,156.833 55.667 C 156.500 55.667,156.333 55.750,156.333 55.917 C 156.333 56.073,156.175 56.167,155.911 56.167 C 155.679 56.167,155.446 56.279,155.394 56.417 C 155.339 56.559,155.090 56.667,154.816 56.667 C 154.498 56.667,154.333 56.752,154.333 56.917 C 154.333 57.102,154.139 57.167,153.583 57.167 C 153.028 57.167,152.833 57.231,152.833 57.417 C 152.833 57.778,148.905 57.773,148.426 57.411 C 148.249 57.277,147.780 57.167,147.385 57.167 C 146.858 57.167,146.667 57.100,146.667 56.917 C 146.667 56.750,146.500 56.667,146.167 56.667 C 145.833 56.667,145.667 56.583,145.667 56.417 C 145.667 56.279,145.554 56.167,145.417 56.167 C 145.279 56.167,145.167 56.054,145.167 55.917 C 145.167 55.750,145.000 55.667,144.667 55.667 C 144.333 55.667,144.167 55.583,144.167 55.417 C 144.167 55.279,144.054 55.167,143.917 55.167 C 143.779 55.167,143.667 55.054,143.667 54.917 C 143.667 54.779,143.554 54.667,143.417 54.667 C 143.279 54.667,143.167 54.554,143.167 54.417 C 143.167 54.279,143.054 54.167,142.917 54.167 C 142.750 54.167,142.667 54.000,142.667 53.667 C 142.667 53.333,142.583 53.167,142.417 53.167 C 142.279 53.167,142.167 53.054,142.167 52.917 C 142.167 52.779,142.054 52.667,141.917 52.667 C 141.750 52.667,141.667 52.500,141.667 52.167 C 141.667 51.833,141.583 51.667,141.417 51.667 C 141.231 51.667,141.167 51.472,141.167 50.917 C 141.167 50.361,141.102 50.167,140.917 50.167 C 140.714 50.167,140.667 49.900,140.667 48.768 C 140.667 47.678,140.611 47.348,140.417 47.273 C 140.273 47.218,140.167 46.969,140.167 46.690 C 140.167 46.410,140.273 46.161,140.417 46.106 C 140.606 46.034,140.667 45.727,140.667 44.839 C 140.667 43.908,140.718 43.667,140.917 43.667 C 141.096 43.667,141.167 43.483,141.167 43.018 C 141.167 42.595,141.254 42.336,141.417 42.273 C 141.554 42.220,141.667 42.033,141.667 41.856 C 141.667 41.680,141.779 41.492,141.917 41.440 C 142.054 41.387,142.167 41.191,142.167 41.005 C 142.167 40.815,142.276 40.667,142.417 40.667 C 142.554 40.667,142.667 40.552,142.667 40.411 C 142.667 40.271,142.779 40.113,142.917 40.060 C 143.054 40.008,143.167 39.830,143.167 39.667 C 143.167 39.503,143.279 39.326,143.417 39.273 C 143.554 39.220,143.667 39.081,143.668 38.964 C 143.669 38.846,144.007 38.602,144.418 38.421 C 144.830 38.240,145.167 37.996,145.167 37.879 C 145.167 37.762,145.279 37.667,145.417 37.667 C 145.554 37.667,145.667 37.554,145.667 37.417 C 145.667 37.250,145.833 37.167,146.167 37.167 C 146.500 37.167,146.667 37.083,146.667 36.917 C 146.667 36.750,146.833 36.667,147.167 36.667 C 147.500 36.667,147.667 36.583,147.667 36.417 C 147.667 36.222,147.889 36.167,148.667 36.167 C 149.444 36.167,149.667 36.111,149.667 35.917 C 149.667 35.710,149.981 35.667,151.500 35.667 C 153.019 35.667,153.333 35.710,153.333 35.917 M232.667 36.417 C 232.798 36.575,233.166 36.667,233.667 36.667 C 234.168 36.667,234.535 36.759,234.667 36.917 C 234.781 37.054,235.090 37.167,235.354 37.167 C 235.669 37.167,235.833 37.252,235.833 37.417 C 235.833 37.583,236.000 37.667,236.333 37.667 C 236.667 37.667,236.833 37.750,236.833 37.917 C 236.833 38.054,236.946 38.167,237.083 38.167 C 237.221 38.167,237.333 38.279,237.333 38.417 C 237.333 38.554,237.446 38.667,237.583 38.667 C 237.721 38.667,237.833 38.737,237.833 38.824 C 237.833 38.910,238.058 39.114,238.333 39.277 C 238.608 39.439,238.833 39.706,238.833 39.869 C 238.833 40.033,238.946 40.167,239.083 40.167 C 239.221 40.167,239.333 40.279,239.333 40.417 C 239.333 40.554,239.446 40.667,239.583 40.667 C 239.740 40.667,239.833 40.825,239.833 41.089 C 239.833 41.321,239.946 41.554,240.083 41.606 C 240.226 41.661,240.333 41.910,240.333 42.184 C 240.333 42.502,240.419 42.667,240.583 42.667 C 240.769 42.667,240.833 42.861,240.833 43.417 C 240.833 43.972,240.898 44.167,241.083 44.167 C 241.293 44.167,241.333 44.528,241.333 46.417 C 241.333 48.306,241.293 48.667,241.083 48.667 C 240.898 48.667,240.833 48.862,240.833 49.422 C 240.833 49.939,240.755 50.207,240.583 50.273 C 240.420 50.336,240.333 50.595,240.333 51.018 C 240.333 51.483,240.263 51.667,240.083 51.667 C 239.946 51.667,239.833 51.782,239.833 51.922 C 239.833 52.062,239.721 52.220,239.583 52.273 C 239.446 52.326,239.333 52.548,239.333 52.768 C 239.333 53.011,239.236 53.167,239.083 53.167 C 238.946 53.167,238.833 53.279,238.833 53.417 C 238.833 53.554,238.721 53.667,238.583 53.667 C 238.446 53.667,238.333 53.779,238.333 53.917 C 238.333 54.054,238.221 54.167,238.083 54.167 C 237.946 54.167,237.833 54.279,237.833 54.417 C 237.833 54.554,237.721 54.667,237.583 54.667 C 237.446 54.667,237.333 54.779,237.333 54.917 C 237.333 55.054,237.221 55.167,237.083 55.167 C 236.946 55.167,236.833 55.279,236.833 55.417 C 236.833 55.583,236.667 55.667,236.333 55.667 C 236.000 55.667,235.833 55.750,235.833 55.917 C 235.833 56.083,235.667 56.167,235.333 56.167 C 235.000 56.167,234.833 56.250,234.833 56.417 C 234.833 56.602,234.639 56.667,234.083 56.667 C 233.528 56.667,233.333 56.731,233.333 56.917 C 233.333 57.126,232.991 57.167,231.250 57.167 C 229.509 57.167,229.167 57.126,229.167 56.917 C 229.167 56.731,228.972 56.667,228.417 56.667 C 227.861 56.667,227.667 56.602,227.667 56.417 C 227.667 56.252,227.502 56.167,227.184 56.167 C 226.910 56.167,226.661 56.059,226.606 55.917 C 226.554 55.779,226.321 55.667,226.089 55.667 C 225.825 55.667,225.667 55.573,225.667 55.417 C 225.667 55.279,225.554 55.167,225.417 55.167 C 225.279 55.167,225.167 55.096,225.167 55.009 C 225.167 54.854,224.525 54.443,223.958 54.235 C 223.791 54.173,223.667 53.957,223.667 53.725 C 223.667 53.504,223.554 53.280,223.417 53.227 C 223.279 53.174,223.167 53.027,223.167 52.899 C 223.167 52.771,223.054 52.667,222.917 52.667 C 222.764 52.667,222.667 52.511,222.667 52.268 C 222.667 52.048,222.554 51.826,222.417 51.773 C 222.279 51.720,222.167 51.495,222.167 51.273 C 222.167 51.051,222.054 50.826,221.917 50.773 C 221.771 50.717,221.667 50.467,221.667 50.172 C 221.667 49.834,221.584 49.667,221.417 49.667 C 221.204 49.667,221.167 49.222,221.167 46.667 C 221.167 44.111,221.204 43.667,221.417 43.667 C 221.584 43.667,221.667 43.499,221.667 43.161 C 221.667 42.866,221.771 42.616,221.917 42.560 C 222.056 42.507,222.167 42.259,222.167 42.000 C 222.167 41.741,222.277 41.493,222.417 41.440 C 222.554 41.387,222.667 41.191,222.667 41.005 C 222.667 40.815,222.776 40.667,222.917 40.667 C 223.054 40.667,223.167 40.552,223.167 40.411 C 223.167 40.271,223.279 40.113,223.417 40.060 C 223.554 40.008,223.667 39.785,223.667 39.566 C 223.667 39.322,223.764 39.167,223.917 39.167 C 224.054 39.167,224.167 39.054,224.167 38.917 C 224.167 38.779,224.311 38.667,224.488 38.667 C 224.665 38.667,224.922 38.554,225.060 38.417 C 225.197 38.279,225.390 38.167,225.488 38.167 C 225.586 38.167,225.669 38.073,225.671 37.958 C 225.676 37.728,226.779 37.167,227.226 37.167 C 227.383 37.167,227.554 37.054,227.606 36.917 C 227.672 36.747,227.937 36.667,228.434 36.667 C 228.974 36.667,229.167 36.601,229.167 36.417 C 229.167 36.211,229.461 36.167,230.813 36.167 C 232.073 36.167,232.508 36.225,232.667 36.417 M66.444 46.944 C 66.242 47.147,66.329 47.324,66.583 47.227 C 66.721 47.174,66.833 47.064,66.833 46.982 C 66.833 46.807,66.604 46.785,66.444 46.944 M74.833 54.167 C 74.701 54.248,74.648 54.371,74.716 54.438 C 74.784 54.506,74.926 54.474,75.033 54.367 C 75.285 54.115,75.145 53.974,74.833 54.167 " stroke="none" fill="#000" fill-rule="evenodd"></path><path id="path5" d="" stroke="none" fill="#000" fill-rule="evenodd"></path><path id="path6" d="M56.500 61.917 C 56.330 62.121,56.341 62.167,56.563 62.167 C 56.712 62.167,56.833 62.054,56.833 61.917 C 56.833 61.779,56.805 61.667,56.770 61.667 C 56.736 61.667,56.614 61.779,56.500 61.917 M48.500 66.417 C 48.330 66.621,48.341 66.667,48.563 66.667 C 48.712 66.667,48.833 66.554,48.833 66.417 C 48.833 66.279,48.805 66.167,48.770 66.167 C 48.736 66.167,48.614 66.279,48.500 66.417 M59.535 72.423 C 59.257 72.738,59.509 72.738,59.926 72.422 C 60.170 72.237,60.189 72.178,60.000 72.178 C 59.862 72.179,59.653 72.289,59.535 72.423 " stroke="none" fill="#000" fill-rule="evenodd"></path><path id="path7" d="" stroke="none" fill="#000" fill-rule="evenodd"></path><path id="path8" d="" stroke="none" fill="#000" fill-rule="evenodd"></path></g></svg>