<svg width="198" height="124" viewBox="0 0 198 124" fill="none" xmlns="http://www.w3.org/2000/svg">
<path d="M83.4823 17.2896C85.0982 17.2883 86.692 17.6644 88.1359 18.3878C89.5799 19.1113 90.834 20.1619 91.7977 21.4555L97.7696 13.6681L79.851 0L66.1465 17.8708L73.8693 23.7617C74.6422 21.85 75.9703 20.2125 77.6832 19.0592C79.3961 17.906 81.4156 17.2897 83.4823 17.2896Z" fill="#FF9A5F"/>
<path d="M167.476 83.7596H196.86C198.089 88.4161 198.229 93.2916 197.272 98.011C196.315 102.73 194.285 107.168 191.338 110.982C188.391 114.796 184.607 117.885 180.275 120.012C175.944 122.138 171.181 123.245 166.353 123.248C165.491 123.248 164.638 123.214 163.794 123.145V105.867C163.795 105.039 163.592 104.223 163.201 103.492C162.811 102.761 162.247 102.136 161.557 101.674C160.868 101.212 160.075 100.926 159.249 100.842C158.423 100.757 157.588 100.877 156.82 101.19V94.3914C156.819 92.9954 157.094 91.6129 157.63 90.3231C158.165 89.0332 158.95 87.8611 159.939 86.8738C160.929 85.8865 162.104 85.1033 163.397 84.5689C164.69 84.0346 166.076 83.7596 167.476 83.7596Z" fill="#FF9A5F"/>
<path d="M18.0493 93.7845L7.82202 85.9833L-0.000103793 96.1833L10.2272 103.984L18.0493 93.7845Z" fill="#FF9A5F"/>
<path d="M24.2384 114.223L15.0307 45.3785L149.89 24.337L159.098 93.1813L24.2384 114.223Z" fill="#F1F1F1" stroke="#111111" stroke-width="0.563637"/>
<path d="M147.055 30.57L19.3833 50.4901L27.1279 108.395L154.8 88.475L147.055 30.57Z" fill="white"/>
<path d="M15.193 47.0322L14.4367 41.3773L149.296 20.3358L150.052 25.9907L15.193 47.0322Z" fill="#E5E5E5" stroke="#111111" stroke-width="0.563637"/>
<path d="M18.8851 45.2917C19.4802 45.2917 19.9626 44.7707 19.9626 44.128C19.9626 43.4854 19.4802 42.9644 18.8851 42.9644C18.29 42.9644 17.8076 43.4854 17.8076 44.128C17.8076 44.7707 18.29 45.2917 18.8851 45.2917Z" fill="white"/>
<path d="M22.9322 44.6612C23.5273 44.6612 24.0097 44.1403 24.0097 43.4976C24.0097 42.855 23.5273 42.334 22.9322 42.334C22.3371 42.334 21.8547 42.855 21.8547 43.4976C21.8547 44.1403 22.3371 44.6612 22.9322 44.6612Z" fill="white"/>
<path d="M26.9796 44.0293C27.5747 44.0293 28.0571 43.5083 28.0571 42.8657C28.0571 42.2231 27.5747 41.7021 26.9796 41.7021C26.3845 41.7021 25.9021 42.2231 25.9021 42.8657C25.9021 43.5083 26.3845 44.0293 26.9796 44.0293Z" fill="white"/>
<path d="M44.6986 123.718V54.1584H180.957V123.718H44.6986Z" fill="#E6E6E6" stroke="#111111" stroke-width="0.563637"/>
<path d="M44.6608 55.8012V50.128H180.878V55.8012H44.6608Z" fill="#E5E5E5" stroke="#111111" stroke-width="0.604864"/>
<path d="M48.6776 54.681C49.2727 54.681 49.7551 54.16 49.7551 53.5174C49.7551 52.8747 49.2727 52.3538 48.6776 52.3538C48.0825 52.3538 47.6001 52.8747 47.6001 53.5174C47.6001 54.16 48.0825 54.681 48.6776 54.681Z" fill="white"/>
<path d="M52.7669 54.681C53.362 54.681 53.8444 54.16 53.8444 53.5174C53.8444 52.8747 53.362 52.3538 52.7669 52.3538C52.1719 52.3538 51.6895 52.8747 51.6895 53.5174C51.6895 54.16 52.1719 54.681 52.7669 54.681Z" fill="white"/>
<path d="M56.8563 54.681C57.4514 54.681 57.9338 54.16 57.9338 53.5174C57.9338 52.8747 57.4514 52.3538 56.8563 52.3538C56.2612 52.3538 55.7788 52.8747 55.7788 53.5174C55.7788 54.16 56.2612 54.681 56.8563 54.681Z" fill="white"/>
<path d="M48.6107 118.114V60.1719H177.044V118.114H48.6107Z" fill="white" stroke="#111111" stroke-width="0.563637"/>
<ellipse cx="149.545" cy="83.6078" rx="7.0611" ry="7.08383" fill="#FF9A5F"/>
<path d="M160.722 101.795C160.722 100.467 160.434 99.1529 159.875 97.9266C159.316 96.7002 158.497 95.5859 157.465 94.6473C156.432 93.7086 155.206 92.9641 153.857 92.4561C152.508 91.9481 151.062 91.6867 149.601 91.6867C148.141 91.6867 146.695 91.9481 145.346 92.4561C143.997 92.9641 142.771 93.7086 141.738 94.6473C140.705 95.5859 139.886 96.7002 139.327 97.9266C138.769 99.1529 138.481 100.467 138.481 101.795L149.601 101.795H160.722Z" fill="#FF9A5F"/>
<path d="M83.3556 102.198H65.188V103.673H83.3556V102.198Z" fill="#E6E6E6"/>
<path d="M85.6213 106.03H62.7573V107.505H85.6213V106.03Z" fill="#E6E6E6"/>
<path d="M82.7385 79.7954H64.7559V93.7611H82.7385V79.7954Z" fill="#FF9A5F"/>
<path d="M84.5368 92.6643H67.2735C67.0828 92.6641 66.8999 92.58 66.7651 92.4304C66.6302 92.2807 66.5544 92.0779 66.5542 91.8663V78.6987C66.5544 78.4871 66.6302 78.2843 66.7651 78.1347C66.8999 77.985 67.0828 77.9009 67.2735 77.9007H84.5368C84.7275 77.9009 84.9104 77.985 85.0452 78.1346C85.1801 78.2843 85.2559 78.4871 85.2561 78.6987V91.8663C85.2559 92.0779 85.1801 92.2807 85.0452 92.4304C84.9104 92.58 84.7275 92.6641 84.5368 92.6643ZM67.2735 78.6987V91.8663H84.5374L84.5368 78.6987H67.2735Z" fill="#3F3D56"/>
<path d="M82.5586 78.1995H81.8393C81.8393 76.4534 81.2141 74.7788 80.1012 73.5441C78.9883 72.3094 77.4789 71.6157 75.905 71.6157C74.3312 71.6157 72.8218 72.3094 71.7089 73.5441C70.596 74.7788 69.9708 76.4534 69.9708 78.1995H69.2515C69.2515 76.2417 69.9525 74.3641 71.2002 72.9798C72.448 71.5954 74.1404 70.8177 75.905 70.8177C77.6697 70.8177 79.362 71.5954 80.6098 72.9798C81.8576 74.3641 82.5586 76.2417 82.5586 78.1995Z" fill="#3F3D56"/>
<path d="M77.7038 83.6856C77.7041 83.3382 77.6227 82.9966 77.4675 82.6949C77.3124 82.3931 77.0889 82.1415 76.8191 81.9649C76.5494 81.7884 76.2428 81.693 75.9296 81.6883C75.6165 81.6836 75.3076 81.7697 75.0337 81.938C74.7597 82.1064 74.5301 82.3512 74.3677 82.6482C74.2052 82.9452 74.1154 83.2841 74.1073 83.6314C74.0992 83.9787 74.1729 84.3224 74.3213 84.6283C74.4696 84.9343 74.6874 85.192 74.9531 85.3759V87.5173C74.9531 87.656 74.9778 87.7934 75.0256 87.9215C75.0735 88.0497 75.1436 88.1661 75.232 88.2642C75.3204 88.3623 75.4254 88.4401 75.5409 88.4931C75.6564 88.5462 75.7802 88.5735 75.9053 88.5735C76.1578 88.5735 76.4 88.4623 76.5785 88.2642C76.7571 88.0661 76.8574 87.7974 76.8574 87.5173V85.3759C77.1163 85.1971 77.3298 84.9481 77.4779 84.6523C77.626 84.3566 77.7037 84.0239 77.7038 83.6856Z" fill="#3F3D56"/>
</svg>
