<svg width="1436" height="430" viewBox="0 0 1436 430" fill="none"  preserveAspectRatio="xMinYMin" xmlns="http://www.w3.org/2000/svg">
<mask id="path-1-inside-1_85_934" fill="white">
<path fill-rule="evenodd" clip-rule="evenodd" d="M33.6806 430H200.335C252.712 360.981 282.593 281.301 282.593 196.44C282.593 126.405 262.241 59.8974 225.687 0H51.5303C82.6552 61.2535 99.8446 128.478 99.8446 199C99.8446 282.025 76.0201 360.479 33.6806 430ZM32.5095 430C74.9601 360.492 98.8446 282.029 98.8446 199C98.8446 128.478 81.6122 61.2472 50.4073 0H0V430H32.5095ZM384.89 0H226.863C263.302 59.8988 283.593 126.395 283.593 196.44C283.593 281.309 253.799 360.971 201.59 430H335.448C396.587 357.132 431.881 271.118 431.881 179.037C431.881 115.724 415.193 55.2772 384.89 0ZM336.753 430C397.693 357.116 432.881 271.127 432.881 179.037C432.881 115.714 416.244 55.2762 386.036 0L542.234 0C572.441 55.2762 589.078 115.714 589.078 179.037C589.078 271.127 553.89 357.116 492.95 430H336.753ZM643.582 430H494.253C554.996 357.101 590.078 271.136 590.078 179.037C590.078 115.71 573.487 55.278 543.373 0L732.182 0C755.885 48.4073 768.777 100.498 768.777 154.752C768.777 257.771 722.294 352.989 643.582 430ZM645.01 430H1436V0H733.296C756.922 48.4063 769.777 100.493 769.777 154.752C769.777 257.774 723.434 352.963 645.01 430Z"/>
</mask>
<path fill-rule="evenodd" clip-rule="evenodd" d="M33.6806 430H200.335C252.712 360.981 282.593 281.301 282.593 196.44C282.593 126.405 262.241 59.8974 225.687 0H51.5303C82.6552 61.2535 99.8446 128.478 99.8446 199C99.8446 282.025 76.0201 360.479 33.6806 430ZM32.5095 430C74.9601 360.492 98.8446 282.029 98.8446 199C98.8446 128.478 81.6122 61.2472 50.4073 0H0V430H32.5095ZM384.89 0H226.863C263.302 59.8988 283.593 126.395 283.593 196.44C283.593 281.309 253.799 360.971 201.59 430H335.448C396.587 357.132 431.881 271.118 431.881 179.037C431.881 115.724 415.193 55.2772 384.89 0ZM336.753 430C397.693 357.116 432.881 271.127 432.881 179.037C432.881 115.714 416.244 55.2762 386.036 0L542.234 0C572.441 55.2762 589.078 115.714 589.078 179.037C589.078 271.127 553.89 357.116 492.95 430H336.753ZM643.582 430H494.253C554.996 357.101 590.078 271.136 590.078 179.037C590.078 115.71 573.487 55.278 543.373 0L732.182 0C755.885 48.4073 768.777 100.498 768.777 154.752C768.777 257.771 722.294 352.989 643.582 430ZM645.01 430H1436V0H733.296C756.922 48.4063 769.777 100.493 769.777 154.752C769.777 257.774 723.434 352.963 645.01 430Z" fill="black"/>
<path d="M200.335 430V431H200.832L201.132 430.605L200.335 430ZM33.6806 430L32.8265 429.48L31.9007 431H33.6806V430ZM225.687 0L226.54 -0.520929L226.248 -1H225.687V0ZM51.5303 0V-1H49.9005L50.6388 0.453004L51.5303 0ZM32.5095 430V431H33.0705L33.3629 430.521L32.5095 430ZM50.4073 0L51.2983 -0.453966L51.0201 -1H50.4073V0ZM0 0V-1H-1V0H0ZM0 430H-1V431H0V430ZM226.863 0V-1H225.084L226.008 0.519726L226.863 0ZM384.89 0L385.766 -0.480708L385.482 -1H384.89V0ZM201.59 430L200.792 429.397L199.58 431H201.59V430ZM335.448 430V431H335.914L336.214 430.643L335.448 430ZM336.753 430L335.986 429.359L334.613 431H336.753V430ZM386.036 0V-1H384.35L385.159 0.479545L386.036 0ZM542.234 0L543.111 -0.479545L542.827 -1H542.234V0ZM492.95 430V431H493.417L493.717 430.641L492.95 430ZM643.582 430V431H643.99L644.282 430.715L643.582 430ZM494.253 430L493.485 429.36L492.118 431H494.253V430ZM543.373 0V-1H541.689L542.495 0.478397L543.373 0ZM732.182 0L733.08 -0.439759L732.806 -1H732.182V0ZM1436 430V431H1437V430H1436ZM645.01 430L644.31 429.287L642.565 431H645.01V430ZM1436 0H1437V-1H1436V0ZM733.296 0V-1H731.695L732.397 0.438627L733.296 0ZM200.335 429H33.6806V431H200.335V429ZM281.593 196.44C281.593 281.057 251.8 360.529 199.539 429.395L201.132 430.605C253.624 361.434 283.593 281.546 283.593 196.44H281.593ZM224.833 0.520929C261.3 60.2757 281.593 126.604 281.593 196.44H283.593C283.593 126.205 263.181 59.5191 226.54 -0.520929L224.833 0.520929ZM51.5303 1H225.687V-1H51.5303V1ZM100.845 199C100.845 128.312 83.6141 60.9332 52.4218 -0.453004L50.6388 0.453004C81.6963 61.5738 98.8446 128.644 98.8446 199H100.845ZM34.5347 430.52C76.9627 360.853 100.845 282.221 100.845 199H98.8446C98.8446 281.828 75.0775 360.104 32.8265 429.48L34.5347 430.52ZM33.3629 430.521C75.9024 360.867 99.8446 282.225 99.8446 199H97.8446C97.8446 281.832 74.0178 360.116 31.6561 429.479L33.3629 430.521ZM99.8446 199C99.8446 128.312 82.5709 60.9261 51.2983 -0.453966L49.5163 0.453966C80.6535 61.5683 97.8446 128.644 97.8446 199H99.8446ZM0 1H50.4073V-1H0V1ZM1 430V0H-1V430H1ZM32.5095 429H0V431H32.5095V429ZM226.863 1H384.89V-1H226.863V1ZM226.008 0.519726C262.361 60.2761 282.593 126.594 282.593 196.44H284.593C284.593 126.196 264.243 59.5216 227.717 -0.519726L226.008 0.519726ZM282.593 196.44C282.593 281.065 252.887 360.52 200.792 429.397L202.388 430.603C254.711 361.423 284.593 281.553 284.593 196.44H282.593ZM335.448 429H201.59V431H335.448V429ZM336.214 430.643C397.482 357.621 432.881 271.386 432.881 179.037H430.881C430.881 270.851 395.692 356.643 334.682 429.357L336.214 430.643ZM432.881 179.037C432.881 115.543 416.144 54.9326 385.766 -0.480708L384.013 0.480708C414.241 55.6218 430.881 115.904 430.881 179.037H432.881ZM431.881 179.037C431.881 270.86 396.798 356.628 335.986 429.359L337.52 430.641C398.589 357.604 433.881 271.394 433.881 179.037H431.881ZM385.159 0.479545C415.292 55.6198 431.881 115.894 431.881 179.037H433.881C433.881 115.534 417.196 54.9326 386.914 -0.479545L385.159 0.479545ZM386.036 1H542.234V-1H386.036V1ZM541.356 0.479545C571.489 55.6198 588.078 115.894 588.078 179.037H590.078C590.078 115.534 573.393 54.9326 543.111 -0.479545L541.356 0.479545ZM588.078 179.037C588.078 270.86 552.995 356.628 492.183 429.359L493.717 430.641C554.786 357.604 590.078 271.394 590.078 179.037H588.078ZM492.95 429H336.753V431H492.95V429ZM643.582 429H494.253V431H643.582V429ZM589.078 179.037C589.078 270.87 554.1 356.614 493.485 429.36L495.022 430.64C555.892 357.587 591.078 271.401 591.078 179.037H589.078ZM542.495 0.478397C572.535 55.6207 589.078 115.89 589.078 179.037H591.078C591.078 115.531 574.439 54.9353 544.251 -0.478397L542.495 0.478397ZM543.373 1H732.182V-1H543.373V1ZM769.777 154.752C769.777 100.336 756.845 48.0955 733.08 -0.439759L731.284 0.439759C754.924 48.7191 767.777 100.66 767.777 154.752H769.777ZM644.282 430.715C723.147 353.553 769.777 258.09 769.777 154.752H767.777C767.777 257.453 721.441 352.425 642.883 429.285L644.282 430.715ZM1436 429H645.01V431H1436V429ZM1435 0V430H1437V0H1435ZM733.296 1H1436V-1H733.296V1ZM770.777 154.752C770.777 100.331 757.883 48.0954 734.194 -0.438627L732.397 0.438627C755.961 48.7172 768.777 100.654 768.777 154.752H770.777ZM645.711 430.713C724.288 353.526 770.777 258.091 770.777 154.752H768.777C768.777 257.456 722.58 352.4 644.31 429.287L645.711 430.713Z" fill="#DFC670" fill-opacity="0.2" mask="url(#path-1-inside-1_85_934)"/>
</svg>
