<svg width="56" height="53" viewBox="0 0 56 53" fill="none" xmlns="http://www.w3.org/2000/svg">
<path d="M44.6828 19.0876C44.7095 19.4407 44.7095 19.7938 44.7095 20.1469C44.7095 30.9167 36.0484 43.3261 20.2183 43.3261C15.3414 43.3261 10.8109 41.9893 7 39.6689C7.69292 39.7445 8.3591 39.7698 9.07868 39.7698C13.1027 39.7698 16.8071 38.4835 19.7653 36.2892C15.981 36.2135 12.8096 33.8678 11.717 30.6394C12.25 30.715 12.783 30.7654 13.3427 30.7654C14.1155 30.7654 14.8884 30.6645 15.6079 30.488C11.6637 29.7313 8.70552 26.4525 8.70552 22.4926V22.3917C9.85142 22.9971 11.184 23.3754 12.5964 23.4258C10.2778 21.9629 8.75884 19.4659 8.75884 16.641C8.75884 15.1277 9.18516 13.7405 9.9314 12.5298C14.1687 17.4734 20.5381 20.7017 27.6802 21.0549C27.5469 20.4496 27.467 19.8191 27.467 19.1885C27.467 14.6989 31.3046 11.0417 36.0749 11.0417C38.5533 11.0417 40.7918 12.0254 42.3642 13.6144C44.3096 13.2613 46.1751 12.5803 47.8274 11.6471C47.1878 13.5388 45.8287 15.1278 44.0432 16.1366C45.7754 15.9601 47.4544 15.506 49 14.8755C47.8276 16.4897 46.3618 17.9273 44.6828 19.0876V19.0876Z" fill="#FAFAFF"/>
</svg>

