<?xml version="1.0" standalone="no"?>
<!DOCTYPE svg PUBLIC "-//W3C//DTD SVG 20010904//EN"
 "http://www.w3.org/TR/2001/REC-SVG-20010904/DTD/svg10.dtd">
<svg version="1.0" xmlns="http://www.w3.org/2000/svg"
 width="800.000000pt" height="260.000000pt" viewBox="0 0 800.000000 260.000000"
 preserveAspectRatio="xMidYMid meet">

<g transform="translate(0.000000,260.000000) scale(0.100000,-0.100000)"
fill="#1434CB" stroke="none">
<path d="M4970 2575 c-137 -22 -257 -61 -377 -121 -293 -146 -453 -387 -453
-683 0 -171 47 -289 163 -408 88 -91 166 -145 387 -268 190 -106 265 -157 303
-207 91 -121 22 -264 -158 -329 -86 -31 -278 -37 -417 -14 -119 20 -277 69
-367 115 -35 17 -64 30 -65 28 -1 -2 -26 -118 -56 -258 -29 -140 -55 -262 -58
-271 -8 -33 292 -113 517 -139 132 -16 407 -8 521 14 240 47 435 141 572 278
152 151 222 320 223 543 0 97 -4 133 -22 190 -61 193 -213 342 -508 500 -250
133 -344 204 -361 270 -11 42 2 103 29 138 29 39 121 89 192 106 135 33 388 5
582 -64 53 -19 98 -34 99 -32 3 3 107 490 108 507 1 19 -98 53 -254 87 -146
31 -463 41 -600 18z"/>
<path d="M16 2534 c-3 -9 -6 -25 -6 -37 0 -20 11 -25 103 -45 215 -49 494
-156 577 -222 21 -17 50 -54 64 -83 15 -30 137 -482 286 -1057 143 -553 263
-1013 266 -1023 5 -16 28 -17 346 -15 l340 3 519 1240 c285 682 519 1243 519
1248 0 4 -151 6 -336 5 l-337 -3 -328 -830 c-181 -456 -331 -836 -334 -844 -3
-8 -7 -12 -10 -10 -2 2 -67 337 -144 744 -152 798 -157 815 -229 875 -20 17
-61 39 -90 50 -50 19 -79 20 -626 20 -514 0 -574 -2 -580 -16z"/>
<path d="M3307 2523 c-24 -120 -519 -2442 -523 -2455 -5 -17 15 -18 319 -18
l325 0 5 28 c24 117 518 2450 522 2460 3 9 -65 12 -319 12 l-323 0 -6 -27z"/>
<path d="M6816 2535 c-55 -19 -106 -64 -142 -122 -16 -28 -245 -568 -508
-1199 -263 -632 -481 -1152 -483 -1156 -2 -5 148 -8 335 -8 l339 0 65 187 65
188 415 3 415 2 39 -187 40 -188 297 -3 c234 -2 297 0 297 10 0 7 -117 569
-259 1248 l-257 1235 -310 2 c-243 2 -317 -1 -348 -12z m304 -1140 c53 -247
95 -453 93 -457 -6 -11 -533 -10 -533 1 0 8 295 837 322 905 7 18 14 24 16 16
3 -8 49 -217 102 -465z"/>
</g>
</svg>
